<?xml version="1.0" encoding="utf-8" standalone="no"?>
<!DOCTYPE svg PUBLIC "-//W3C//DTD SVG 1.1//EN"
  "http://www.w3.org/Graphics/SVG/1.1/DTD/svg11.dtd">
<svg xmlns:xlink="http://www.w3.org/1999/xlink" width="224.205pt" height="168.594375pt" viewBox="0 0 224.205 168.594375" xmlns="http://www.w3.org/2000/svg" version="1.1">
 <metadata>
  <rdf:RDF xmlns:dc="http://purl.org/dc/elements/1.1/" xmlns:cc="http://creativecommons.org/ns#" xmlns:rdf="http://www.w3.org/1999/02/22-rdf-syntax-ns#">
   <cc:Work>
    <dc:type rdf:resource="http://purl.org/dc/dcmitype/StillImage"/>
    <dc:date>2022-03-18T21:51:41.371790</dc:date>
    <dc:format>image/svg+xml</dc:format>
    <dc:creator>
     <cc:Agent>
      <dc:title>Matplotlib v3.5.1, https://matplotlib.org/</dc:title>
     </cc:Agent>
    </dc:creator>
   </cc:Work>
  </rdf:RDF>
 </metadata>
 <defs>
  <style type="text/css">*{stroke-linejoin: round; stroke-linecap: butt}</style>
 </defs>
 <g id="figure_1">
  <g id="patch_1">
   <path d="M 0 168.594375 
L 224.205 168.594375 
L 224.205 0 
L 0 0 
L 0 168.594375 
z
" style="fill: none"/>
  </g>
  <g id="axes_1">
   <g id="patch_2">
    <path d="M 43.78125 131.038125 
L 211.18125 131.038125 
L 211.18125 22.318125 
L 43.78125 22.318125 
L 43.78125 131.038125 
z
" style="fill: none"/>
   </g>
   <g id="patch_3">
    <path d="M 51.390341 131.038125 
L 54.403741 131.038125 
L 54.403741 35.197591 
L 51.390341 35.197591 
z
" clip-path="url(#p8d5762770b)" style="fill: #1f77b4"/>
   </g>
   <g id="patch_4">
    <path d="M 54.403741 131.038125 
L 57.417141 131.038125 
L 57.417141 115.637638 
L 54.403741 115.637638 
z
" clip-path="url(#p8d5762770b)" style="fill: #1f77b4"/>
   </g>
   <g id="patch_5">
    <path d="M 57.417141 131.038125 
L 60.430541 131.038125 
L 60.430541 117.975212 
L 57.417141 117.975212 
z
" clip-path="url(#p8d5762770b)" style="fill: #1f77b4"/>
   </g>
   <g id="patch_6">
    <path d="M 60.430541 131.038125 
L 63.443941 131.038125 
L 63.443941 114.950116 
L 60.430541 114.950116 
z
" clip-path="url(#p8d5762770b)" style="fill: #1f77b4"/>
   </g>
   <g id="patch_7">
    <path d="M 63.443941 131.038125 
L 66.457341 131.038125 
L 66.457341 111.375003 
L 63.443941 111.375003 
z
" clip-path="url(#p8d5762770b)" style="fill: #1f77b4"/>
   </g>
   <g id="patch_8">
    <path d="M 66.457341 131.038125 
L 69.470741 131.038125 
L 69.470741 65.723558 
L 66.457341 65.723558 
z
" clip-path="url(#p8d5762770b)" style="fill: #1f77b4"/>
   </g>
   <g id="patch_9">
    <path d="M 69.470741 131.038125 
L 72.484141 131.038125 
L 72.484141 32.997522 
L 69.470741 32.997522 
z
" clip-path="url(#p8d5762770b)" style="fill: #1f77b4"/>
   </g>
   <g id="patch_10">
    <path d="M 72.484141 131.038125 
L 75.497542 131.038125 
L 75.497542 89.786819 
L 72.484141 89.786819 
z
" clip-path="url(#p8d5762770b)" style="fill: #1f77b4"/>
   </g>
   <g id="patch_11">
    <path d="M 75.497542 131.038125 
L 78.510942 131.038125 
L 78.510942 121.825333 
L 75.497542 121.825333 
z
" clip-path="url(#p8d5762770b)" style="fill: #1f77b4"/>
   </g>
   <g id="patch_12">
    <path d="M 78.510942 131.038125 
L 81.524342 131.038125 
L 81.524342 128.97556 
L 78.510942 128.97556 
z
" clip-path="url(#p8d5762770b)" style="fill: #1f77b4"/>
   </g>
   <g id="patch_13">
    <path d="M 81.524342 131.038125 
L 84.537742 131.038125 
L 84.537742 129.663081 
L 81.524342 129.663081 
z
" clip-path="url(#p8d5762770b)" style="fill: #1f77b4"/>
   </g>
   <g id="patch_14">
    <path d="M 84.537742 131.038125 
L 87.551142 131.038125 
L 87.551142 130.763116 
L 84.537742 130.763116 
z
" clip-path="url(#p8d5762770b)" style="fill: #1f77b4"/>
   </g>
   <g id="patch_15">
    <path d="M 87.551142 131.038125 
L 90.564542 131.038125 
L 90.564542 115.775142 
L 87.551142 115.775142 
z
" clip-path="url(#p8d5762770b)" style="fill: #1f77b4"/>
   </g>
   <g id="patch_16">
    <path d="M 90.564542 131.038125 
L 93.577942 131.038125 
L 93.577942 109.312437 
L 90.564542 109.312437 
z
" clip-path="url(#p8d5762770b)" style="fill: #1f77b4"/>
   </g>
   <g id="patch_17">
    <path d="M 93.577942 131.038125 
L 96.591342 131.038125 
L 96.591342 117.975212 
L 93.577942 117.975212 
z
" clip-path="url(#p8d5762770b)" style="fill: #1f77b4"/>
   </g>
   <g id="patch_18">
    <path d="M 96.591342 131.038125 
L 99.604742 131.038125 
L 99.604742 120.725299 
L 96.591342 120.725299 
z
" clip-path="url(#p8d5762770b)" style="fill: #1f77b4"/>
   </g>
   <g id="patch_19">
    <path d="M 99.604742 131.038125 
L 102.618142 131.038125 
L 102.618142 125.125438 
L 99.604742 125.125438 
z
" clip-path="url(#p8d5762770b)" style="fill: #1f77b4"/>
   </g>
   <g id="patch_20">
    <path d="M 102.618142 131.038125 
L 105.631542 131.038125 
L 105.631542 129.663081 
L 102.618142 129.663081 
z
" clip-path="url(#p8d5762770b)" style="fill: #1f77b4"/>
   </g>
   <g id="patch_21">
    <path d="M 105.631542 131.038125 
L 108.644942 131.038125 
L 108.644942 129.93809 
L 105.631542 129.93809 
z
" clip-path="url(#p8d5762770b)" style="fill: #1f77b4"/>
   </g>
   <g id="patch_22">
    <path d="M 108.644942 131.038125 
L 111.658343 131.038125 
L 111.658343 130.488108 
L 108.644942 130.488108 
z
" clip-path="url(#p8d5762770b)" style="fill: #1f77b4"/>
   </g>
   <g id="patch_23">
    <path d="M 111.658343 131.038125 
L 114.671743 131.038125 
L 114.671743 130.488108 
L 111.658343 130.488108 
z
" clip-path="url(#p8d5762770b)" style="fill: #1f77b4"/>
   </g>
   <g id="patch_24">
    <path d="M 114.671743 131.038125 
L 117.685143 131.038125 
L 117.685143 129.800586 
L 114.671743 129.800586 
z
" clip-path="url(#p8d5762770b)" style="fill: #1f77b4"/>
   </g>
   <g id="patch_25">
    <path d="M 117.685143 131.038125 
L 120.698543 131.038125 
L 120.698543 129.250568 
L 117.685143 129.250568 
z
" clip-path="url(#p8d5762770b)" style="fill: #1f77b4"/>
   </g>
   <g id="patch_26">
    <path d="M 120.698543 131.038125 
L 123.711943 131.038125 
L 123.711943 128.700551 
L 120.698543 128.700551 
z
" clip-path="url(#p8d5762770b)" style="fill: #1f77b4"/>
   </g>
   <g id="patch_27">
    <path d="M 123.711943 131.038125 
L 126.725343 131.038125 
L 126.725343 127.325507 
L 123.711943 127.325507 
z
" clip-path="url(#p8d5762770b)" style="fill: #1f77b4"/>
   </g>
   <g id="patch_28">
    <path d="M 126.725343 131.038125 
L 129.738743 131.038125 
L 129.738743 103.262246 
L 126.725343 103.262246 
z
" clip-path="url(#p8d5762770b)" style="fill: #1f77b4"/>
   </g>
   <g id="patch_29">
    <path d="M 129.738743 131.038125 
L 132.752143 131.038125 
L 132.752143 126.912994 
L 129.738743 126.912994 
z
" clip-path="url(#p8d5762770b)" style="fill: #1f77b4"/>
   </g>
   <g id="patch_30">
    <path d="M 132.752143 131.038125 
L 135.765543 131.038125 
L 135.765543 128.288038 
L 132.752143 128.288038 
z
" clip-path="url(#p8d5762770b)" style="fill: #1f77b4"/>
   </g>
   <g id="patch_31">
    <path d="M 135.765543 131.038125 
L 138.778943 131.038125 
L 138.778943 125.537951 
L 135.765543 125.537951 
z
" clip-path="url(#p8d5762770b)" style="fill: #1f77b4"/>
   </g>
   <g id="patch_32">
    <path d="M 138.778943 131.038125 
L 141.792343 131.038125 
L 141.792343 125.400447 
L 138.778943 125.400447 
z
" clip-path="url(#p8d5762770b)" style="fill: #1f77b4"/>
   </g>
   <g id="patch_33">
    <path d="M 141.792343 131.038125 
L 144.805743 131.038125 
L 144.805743 125.125438 
L 141.792343 125.125438 
z
" clip-path="url(#p8d5762770b)" style="fill: #1f77b4"/>
   </g>
   <g id="patch_34">
    <path d="M 144.805743 131.038125 
L 147.819144 131.038125 
L 147.819144 122.100342 
L 144.805743 122.100342 
z
" clip-path="url(#p8d5762770b)" style="fill: #1f77b4"/>
   </g>
   <g id="patch_35">
    <path d="M 147.819144 131.038125 
L 150.832544 131.038125 
L 150.832544 127.050499 
L 147.819144 127.050499 
z
" clip-path="url(#p8d5762770b)" style="fill: #1f77b4"/>
   </g>
   <g id="patch_36">
    <path d="M 150.832544 131.038125 
L 153.845944 131.038125 
L 153.845944 130.213099 
L 150.832544 130.213099 
z
" clip-path="url(#p8d5762770b)" style="fill: #1f77b4"/>
   </g>
   <g id="patch_37">
    <path d="M 153.845944 131.038125 
L 156.859344 131.038125 
L 156.859344 130.075595 
L 153.845944 130.075595 
z
" clip-path="url(#p8d5762770b)" style="fill: #1f77b4"/>
   </g>
   <g id="patch_38">
    <path d="M 156.859344 131.038125 
L 159.872744 131.038125 
L 159.872744 129.800586 
L 156.859344 129.800586 
z
" clip-path="url(#p8d5762770b)" style="fill: #1f77b4"/>
   </g>
   <g id="patch_39">
    <path d="M 159.872744 131.038125 
L 162.886144 131.038125 
L 162.886144 129.800586 
L 159.872744 129.800586 
z
" clip-path="url(#p8d5762770b)" style="fill: #1f77b4"/>
   </g>
   <g id="patch_40">
    <path d="M 162.886144 131.038125 
L 165.899544 131.038125 
L 165.899544 117.700203 
L 162.886144 117.700203 
z
" clip-path="url(#p8d5762770b)" style="fill: #1f77b4"/>
   </g>
   <g id="patch_41">
    <path d="M 165.899544 131.038125 
L 168.912944 131.038125 
L 168.912944 123.475386 
L 165.899544 123.475386 
z
" clip-path="url(#p8d5762770b)" style="fill: #1f77b4"/>
   </g>
   <g id="patch_42">
    <path d="M 168.912944 131.038125 
L 171.926344 131.038125 
L 171.926344 115.362629 
L 168.912944 115.362629 
z
" clip-path="url(#p8d5762770b)" style="fill: #1f77b4"/>
   </g>
   <g id="patch_43">
    <path d="M 171.926344 131.038125 
L 174.939744 131.038125 
L 174.939744 116.462664 
L 171.926344 116.462664 
z
" clip-path="url(#p8d5762770b)" style="fill: #1f77b4"/>
   </g>
   <g id="patch_44">
    <path d="M 174.939744 131.038125 
L 177.953144 131.038125 
L 177.953144 120.862803 
L 174.939744 120.862803 
z
" clip-path="url(#p8d5762770b)" style="fill: #1f77b4"/>
   </g>
   <g id="patch_45">
    <path d="M 177.953144 131.038125 
L 180.966544 131.038125 
L 180.966544 127.463012 
L 177.953144 127.463012 
z
" clip-path="url(#p8d5762770b)" style="fill: #1f77b4"/>
   </g>
   <g id="patch_46">
    <path d="M 180.966544 131.038125 
L 183.979945 131.038125 
L 183.979945 127.875525 
L 180.966544 127.875525 
z
" clip-path="url(#p8d5762770b)" style="fill: #1f77b4"/>
   </g>
   <g id="patch_47">
    <path d="M 183.979945 131.038125 
L 186.993345 131.038125 
L 186.993345 126.500481 
L 183.979945 126.500481 
z
" clip-path="url(#p8d5762770b)" style="fill: #1f77b4"/>
   </g>
   <g id="patch_48">
    <path d="M 186.993345 131.038125 
L 190.006745 131.038125 
L 190.006745 128.563047 
L 186.993345 128.563047 
z
" clip-path="url(#p8d5762770b)" style="fill: #1f77b4"/>
   </g>
   <g id="patch_49">
    <path d="M 190.006745 131.038125 
L 193.020145 131.038125 
L 193.020145 126.225473 
L 190.006745 126.225473 
z
" clip-path="url(#p8d5762770b)" style="fill: #1f77b4"/>
   </g>
   <g id="patch_50">
    <path d="M 193.020145 131.038125 
L 196.033545 131.038125 
L 196.033545 121.687829 
L 193.020145 121.687829 
z
" clip-path="url(#p8d5762770b)" style="fill: #1f77b4"/>
   </g>
   <g id="patch_51">
    <path d="M 196.033545 131.038125 
L 199.046945 131.038125 
L 199.046945 121.825333 
L 196.033545 121.825333 
z
" clip-path="url(#p8d5762770b)" style="fill: #1f77b4"/>
   </g>
   <g id="patch_52">
    <path d="M 199.046945 131.038125 
L 202.060345 131.038125 
L 202.060345 115.225124 
L 199.046945 115.225124 
z
" clip-path="url(#p8d5762770b)" style="fill: #1f77b4"/>
   </g>
   <g id="matplotlib.axis_1">
    <g id="xtick_1">
     <g id="line2d_1">
      <defs>
       <path id="mf0807a7796" d="M 0 0 
L 0 3.5 
" style="stroke: #000000; stroke-width: 0.8"/>
      </defs>
      <g>
       <use xlink:href="#mf0807a7796" x="51.390341" y="131.038125" style="stroke: #000000; stroke-width: 0.8"/>
      </g>
     </g>
     <g id="text_1">
      <!-- 0 -->
      <g transform="translate(48.209091 145.636562)scale(0.1 -0.1)">
       <defs>
        <path id="DejaVuSans-30" d="M 2034 4250 
Q 1547 4250 1301 3770 
Q 1056 3291 1056 2328 
Q 1056 1369 1301 889 
Q 1547 409 2034 409 
Q 2525 409 2770 889 
Q 3016 1369 3016 2328 
Q 3016 3291 2770 3770 
Q 2525 4250 2034 4250 
z
M 2034 4750 
Q 2819 4750 3233 4129 
Q 3647 3509 3647 2328 
Q 3647 1150 3233 529 
Q 2819 -91 2034 -91 
Q 1250 -91 836 529 
Q 422 1150 422 2328 
Q 422 3509 836 4129 
Q 1250 4750 2034 4750 
z
" transform="scale(0.015625)"/>
       </defs>
       <use xlink:href="#DejaVuSans-30"/>
      </g>
     </g>
    </g>
    <g id="xtick_2">
     <g id="line2d_2">
      <g>
       <use xlink:href="#mf0807a7796" x="99.831318" y="131.038125" style="stroke: #000000; stroke-width: 0.8"/>
      </g>
     </g>
     <g id="text_2">
      <!-- 2 -->
      <g transform="translate(96.650068 145.636562)scale(0.1 -0.1)">
       <defs>
        <path id="DejaVuSans-32" d="M 1228 531 
L 3431 531 
L 3431 0 
L 469 0 
L 469 531 
Q 828 903 1448 1529 
Q 2069 2156 2228 2338 
Q 2531 2678 2651 2914 
Q 2772 3150 2772 3378 
Q 2772 3750 2511 3984 
Q 2250 4219 1831 4219 
Q 1534 4219 1204 4116 
Q 875 4013 500 3803 
L 500 4441 
Q 881 4594 1212 4672 
Q 1544 4750 1819 4750 
Q 2544 4750 2975 4387 
Q 3406 4025 3406 3419 
Q 3406 3131 3298 2873 
Q 3191 2616 2906 2266 
Q 2828 2175 2409 1742 
Q 1991 1309 1228 531 
z
" transform="scale(0.015625)"/>
       </defs>
       <use xlink:href="#DejaVuSans-32"/>
      </g>
     </g>
    </g>
    <g id="xtick_3">
     <g id="line2d_3">
      <g>
       <use xlink:href="#mf0807a7796" x="148.272295" y="131.038125" style="stroke: #000000; stroke-width: 0.8"/>
      </g>
     </g>
     <g id="text_3">
      <!-- 4 -->
      <g transform="translate(145.091045 145.636562)scale(0.1 -0.1)">
       <defs>
        <path id="DejaVuSans-34" d="M 2419 4116 
L 825 1625 
L 2419 1625 
L 2419 4116 
z
M 2253 4666 
L 3047 4666 
L 3047 1625 
L 3713 1625 
L 3713 1100 
L 3047 1100 
L 3047 0 
L 2419 0 
L 2419 1100 
L 313 1100 
L 313 1709 
L 2253 4666 
z
" transform="scale(0.015625)"/>
       </defs>
       <use xlink:href="#DejaVuSans-34"/>
      </g>
     </g>
    </g>
    <g id="xtick_4">
     <g id="line2d_4">
      <g>
       <use xlink:href="#mf0807a7796" x="196.713273" y="131.038125" style="stroke: #000000; stroke-width: 0.8"/>
      </g>
     </g>
     <g id="text_4">
      <!-- 6 -->
      <g transform="translate(193.532023 145.636562)scale(0.1 -0.1)">
       <defs>
        <path id="DejaVuSans-36" d="M 2113 2584 
Q 1688 2584 1439 2293 
Q 1191 2003 1191 1497 
Q 1191 994 1439 701 
Q 1688 409 2113 409 
Q 2538 409 2786 701 
Q 3034 994 3034 1497 
Q 3034 2003 2786 2293 
Q 2538 2584 2113 2584 
z
M 3366 4563 
L 3366 3988 
Q 3128 4100 2886 4159 
Q 2644 4219 2406 4219 
Q 1781 4219 1451 3797 
Q 1122 3375 1075 2522 
Q 1259 2794 1537 2939 
Q 1816 3084 2150 3084 
Q 2853 3084 3261 2657 
Q 3669 2231 3669 1497 
Q 3669 778 3244 343 
Q 2819 -91 2113 -91 
Q 1303 -91 875 529 
Q 447 1150 447 2328 
Q 447 3434 972 4092 
Q 1497 4750 2381 4750 
Q 2619 4750 2861 4703 
Q 3103 4656 3366 4563 
z
" transform="scale(0.015625)"/>
       </defs>
       <use xlink:href="#DejaVuSans-36"/>
      </g>
     </g>
    </g>
    <g id="text_5">
     <!-- Radians -->
     <g transform="translate(107.654687 159.314687)scale(0.1 -0.1)">
      <defs>
       <path id="DejaVuSans-52" d="M 2841 2188 
Q 3044 2119 3236 1894 
Q 3428 1669 3622 1275 
L 4263 0 
L 3584 0 
L 2988 1197 
Q 2756 1666 2539 1819 
Q 2322 1972 1947 1972 
L 1259 1972 
L 1259 0 
L 628 0 
L 628 4666 
L 2053 4666 
Q 2853 4666 3247 4331 
Q 3641 3997 3641 3322 
Q 3641 2881 3436 2590 
Q 3231 2300 2841 2188 
z
M 1259 4147 
L 1259 2491 
L 2053 2491 
Q 2509 2491 2742 2702 
Q 2975 2913 2975 3322 
Q 2975 3731 2742 3939 
Q 2509 4147 2053 4147 
L 1259 4147 
z
" transform="scale(0.015625)"/>
       <path id="DejaVuSans-61" d="M 2194 1759 
Q 1497 1759 1228 1600 
Q 959 1441 959 1056 
Q 959 750 1161 570 
Q 1363 391 1709 391 
Q 2188 391 2477 730 
Q 2766 1069 2766 1631 
L 2766 1759 
L 2194 1759 
z
M 3341 1997 
L 3341 0 
L 2766 0 
L 2766 531 
Q 2569 213 2275 61 
Q 1981 -91 1556 -91 
Q 1019 -91 701 211 
Q 384 513 384 1019 
Q 384 1609 779 1909 
Q 1175 2209 1959 2209 
L 2766 2209 
L 2766 2266 
Q 2766 2663 2505 2880 
Q 2244 3097 1772 3097 
Q 1472 3097 1187 3025 
Q 903 2953 641 2809 
L 641 3341 
Q 956 3463 1253 3523 
Q 1550 3584 1831 3584 
Q 2591 3584 2966 3190 
Q 3341 2797 3341 1997 
z
" transform="scale(0.015625)"/>
       <path id="DejaVuSans-64" d="M 2906 2969 
L 2906 4863 
L 3481 4863 
L 3481 0 
L 2906 0 
L 2906 525 
Q 2725 213 2448 61 
Q 2172 -91 1784 -91 
Q 1150 -91 751 415 
Q 353 922 353 1747 
Q 353 2572 751 3078 
Q 1150 3584 1784 3584 
Q 2172 3584 2448 3432 
Q 2725 3281 2906 2969 
z
M 947 1747 
Q 947 1113 1208 752 
Q 1469 391 1925 391 
Q 2381 391 2643 752 
Q 2906 1113 2906 1747 
Q 2906 2381 2643 2742 
Q 2381 3103 1925 3103 
Q 1469 3103 1208 2742 
Q 947 2381 947 1747 
z
" transform="scale(0.015625)"/>
       <path id="DejaVuSans-69" d="M 603 3500 
L 1178 3500 
L 1178 0 
L 603 0 
L 603 3500 
z
M 603 4863 
L 1178 4863 
L 1178 4134 
L 603 4134 
L 603 4863 
z
" transform="scale(0.015625)"/>
       <path id="DejaVuSans-6e" d="M 3513 2113 
L 3513 0 
L 2938 0 
L 2938 2094 
Q 2938 2591 2744 2837 
Q 2550 3084 2163 3084 
Q 1697 3084 1428 2787 
Q 1159 2491 1159 1978 
L 1159 0 
L 581 0 
L 581 3500 
L 1159 3500 
L 1159 2956 
Q 1366 3272 1645 3428 
Q 1925 3584 2291 3584 
Q 2894 3584 3203 3211 
Q 3513 2838 3513 2113 
z
" transform="scale(0.015625)"/>
       <path id="DejaVuSans-73" d="M 2834 3397 
L 2834 2853 
Q 2591 2978 2328 3040 
Q 2066 3103 1784 3103 
Q 1356 3103 1142 2972 
Q 928 2841 928 2578 
Q 928 2378 1081 2264 
Q 1234 2150 1697 2047 
L 1894 2003 
Q 2506 1872 2764 1633 
Q 3022 1394 3022 966 
Q 3022 478 2636 193 
Q 2250 -91 1575 -91 
Q 1294 -91 989 -36 
Q 684 19 347 128 
L 347 722 
Q 666 556 975 473 
Q 1284 391 1588 391 
Q 1994 391 2212 530 
Q 2431 669 2431 922 
Q 2431 1156 2273 1281 
Q 2116 1406 1581 1522 
L 1381 1569 
Q 847 1681 609 1914 
Q 372 2147 372 2553 
Q 372 3047 722 3315 
Q 1072 3584 1716 3584 
Q 2034 3584 2315 3537 
Q 2597 3491 2834 3397 
z
" transform="scale(0.015625)"/>
      </defs>
      <use xlink:href="#DejaVuSans-52"/>
      <use xlink:href="#DejaVuSans-61" x="67.232422"/>
      <use xlink:href="#DejaVuSans-64" x="128.511719"/>
      <use xlink:href="#DejaVuSans-69" x="191.988281"/>
      <use xlink:href="#DejaVuSans-61" x="219.771484"/>
      <use xlink:href="#DejaVuSans-6e" x="281.050781"/>
      <use xlink:href="#DejaVuSans-73" x="344.429688"/>
     </g>
    </g>
   </g>
   <g id="matplotlib.axis_2">
    <g id="ytick_1">
     <g id="line2d_5">
      <defs>
       <path id="mbf7bb27854" d="M 0 0 
L -3.5 0 
" style="stroke: #000000; stroke-width: 0.8"/>
      </defs>
      <g>
       <use xlink:href="#mbf7bb27854" x="43.78125" y="131.038125" style="stroke: #000000; stroke-width: 0.8"/>
      </g>
     </g>
     <g id="text_6">
      <!-- 0.0 -->
      <g transform="translate(20.878125 134.837344)scale(0.1 -0.1)">
       <defs>
        <path id="DejaVuSans-2e" d="M 684 794 
L 1344 794 
L 1344 0 
L 684 0 
L 684 794 
z
" transform="scale(0.015625)"/>
       </defs>
       <use xlink:href="#DejaVuSans-30"/>
       <use xlink:href="#DejaVuSans-2e" x="63.623047"/>
       <use xlink:href="#DejaVuSans-30" x="95.410156"/>
      </g>
     </g>
    </g>
    <g id="ytick_2">
     <g id="line2d_6">
      <g>
       <use xlink:href="#mbf7bb27854" x="43.78125" y="91.245733" style="stroke: #000000; stroke-width: 0.8"/>
      </g>
     </g>
     <g id="text_7">
      <!-- 0.5 -->
      <g transform="translate(20.878125 95.044951)scale(0.1 -0.1)">
       <defs>
        <path id="DejaVuSans-35" d="M 691 4666 
L 3169 4666 
L 3169 4134 
L 1269 4134 
L 1269 2991 
Q 1406 3038 1543 3061 
Q 1681 3084 1819 3084 
Q 2600 3084 3056 2656 
Q 3513 2228 3513 1497 
Q 3513 744 3044 326 
Q 2575 -91 1722 -91 
Q 1428 -91 1123 -41 
Q 819 9 494 109 
L 494 744 
Q 775 591 1075 516 
Q 1375 441 1709 441 
Q 2250 441 2565 725 
Q 2881 1009 2881 1497 
Q 2881 1984 2565 2268 
Q 2250 2553 1709 2553 
Q 1456 2553 1204 2497 
Q 953 2441 691 2322 
L 691 4666 
z
" transform="scale(0.015625)"/>
       </defs>
       <use xlink:href="#DejaVuSans-30"/>
       <use xlink:href="#DejaVuSans-2e" x="63.623047"/>
       <use xlink:href="#DejaVuSans-35" x="95.410156"/>
      </g>
     </g>
    </g>
    <g id="ytick_3">
     <g id="line2d_7">
      <g>
       <use xlink:href="#mbf7bb27854" x="43.78125" y="51.45334" style="stroke: #000000; stroke-width: 0.8"/>
      </g>
     </g>
     <g id="text_8">
      <!-- 1.0 -->
      <g transform="translate(20.878125 55.252559)scale(0.1 -0.1)">
       <defs>
        <path id="DejaVuSans-31" d="M 794 531 
L 1825 531 
L 1825 4091 
L 703 3866 
L 703 4441 
L 1819 4666 
L 2450 4666 
L 2450 531 
L 3481 531 
L 3481 0 
L 794 0 
L 794 531 
z
" transform="scale(0.015625)"/>
       </defs>
       <use xlink:href="#DejaVuSans-31"/>
       <use xlink:href="#DejaVuSans-2e" x="63.623047"/>
       <use xlink:href="#DejaVuSans-30" x="95.410156"/>
      </g>
     </g>
    </g>
    <g id="text_9">
     <!-- Density -->
     <g transform="translate(14.798437 95.686719)rotate(-90)scale(0.1 -0.1)">
      <defs>
       <path id="DejaVuSans-44" d="M 1259 4147 
L 1259 519 
L 2022 519 
Q 2988 519 3436 956 
Q 3884 1394 3884 2338 
Q 3884 3275 3436 3711 
Q 2988 4147 2022 4147 
L 1259 4147 
z
M 628 4666 
L 1925 4666 
Q 3281 4666 3915 4102 
Q 4550 3538 4550 2338 
Q 4550 1131 3912 565 
Q 3275 0 1925 0 
L 628 0 
L 628 4666 
z
" transform="scale(0.015625)"/>
       <path id="DejaVuSans-65" d="M 3597 1894 
L 3597 1613 
L 953 1613 
Q 991 1019 1311 708 
Q 1631 397 2203 397 
Q 2534 397 2845 478 
Q 3156 559 3463 722 
L 3463 178 
Q 3153 47 2828 -22 
Q 2503 -91 2169 -91 
Q 1331 -91 842 396 
Q 353 884 353 1716 
Q 353 2575 817 3079 
Q 1281 3584 2069 3584 
Q 2775 3584 3186 3129 
Q 3597 2675 3597 1894 
z
M 3022 2063 
Q 3016 2534 2758 2815 
Q 2500 3097 2075 3097 
Q 1594 3097 1305 2825 
Q 1016 2553 972 2059 
L 3022 2063 
z
" transform="scale(0.015625)"/>
       <path id="DejaVuSans-74" d="M 1172 4494 
L 1172 3500 
L 2356 3500 
L 2356 3053 
L 1172 3053 
L 1172 1153 
Q 1172 725 1289 603 
Q 1406 481 1766 481 
L 2356 481 
L 2356 0 
L 1766 0 
Q 1100 0 847 248 
Q 594 497 594 1153 
L 594 3053 
L 172 3053 
L 172 3500 
L 594 3500 
L 594 4494 
L 1172 4494 
z
" transform="scale(0.015625)"/>
       <path id="DejaVuSans-79" d="M 2059 -325 
Q 1816 -950 1584 -1140 
Q 1353 -1331 966 -1331 
L 506 -1331 
L 506 -850 
L 844 -850 
Q 1081 -850 1212 -737 
Q 1344 -625 1503 -206 
L 1606 56 
L 191 3500 
L 800 3500 
L 1894 763 
L 2988 3500 
L 3597 3500 
L 2059 -325 
z
" transform="scale(0.015625)"/>
      </defs>
      <use xlink:href="#DejaVuSans-44"/>
      <use xlink:href="#DejaVuSans-65" x="77.001953"/>
      <use xlink:href="#DejaVuSans-6e" x="138.525391"/>
      <use xlink:href="#DejaVuSans-73" x="201.904297"/>
      <use xlink:href="#DejaVuSans-69" x="254.003906"/>
      <use xlink:href="#DejaVuSans-74" x="281.787109"/>
      <use xlink:href="#DejaVuSans-79" x="320.996094"/>
     </g>
    </g>
   </g>
   <g id="line2d_8">
    <path d="M 51.390341 72.90498 
L 51.694705 73.196107 
L 51.999068 73.876719 
L 52.455614 75.595343 
L 53.064341 79.05212 
L 53.82525 84.823903 
L 57.17325 112.461534 
L 57.934159 116.43901 
L 58.695068 119.247364 
L 59.303795 120.731543 
L 59.912523 121.631661 
L 60.369068 121.97802 
L 60.825614 122.081413 
L 61.282159 121.970883 
L 61.890886 121.527976 
L 62.499614 120.775251 
L 63.260523 119.411088 
L 64.021432 117.55495 
L 64.782341 115.160917 
L 65.695432 111.520098 
L 66.760705 106.225385 
L 68.282523 97.29757 
L 69.804341 88.673939 
L 70.56525 85.392783 
L 71.173977 83.593321 
L 71.630523 82.817884 
L 71.934886 82.596349 
L 72.23925 82.618419 
L 72.543614 82.885479 
L 73.000159 83.737726 
L 73.456705 85.105561 
L 74.065432 87.646607 
L 74.978523 92.661833 
L 76.804705 104.589734 
L 78.174341 112.847975 
L 79.239614 117.984804 
L 80.152705 121.356792 
L 80.913614 123.470318 
L 81.674523 125.008481 
L 82.435432 126.028391 
L 83.044159 126.503598 
L 83.652886 126.696844 
L 84.261614 126.624203 
L 84.870341 126.30202 
L 85.63125 125.579859 
L 86.544341 124.320962 
L 87.913977 121.932437 
L 89.740159 118.77783 
L 90.65325 117.60238 
L 91.414159 116.937753 
L 92.175068 116.583033 
L 92.783795 116.517549 
L 93.544705 116.684229 
L 94.305614 117.086768 
L 95.370886 117.951625 
L 96.740523 119.388317 
L 99.479795 122.664987 
L 102.979977 126.787676 
L 104.501795 128.224707 
L 105.71925 129.094393 
L 106.936705 129.709986 
L 108.306341 130.151631 
L 109.980341 130.450464 
L 112.567432 130.655054 
L 115.306705 130.671673 
L 116.980705 130.478553 
L 118.045977 130.161081 
L 118.959068 129.669818 
L 119.719977 129.029206 
L 120.480886 128.105497 
L 121.241795 126.832771 
L 122.154886 124.782712 
L 123.220159 121.685832 
L 126.568159 111.149333 
L 127.176886 110.151768 
L 127.633432 109.757891 
L 128.089977 109.687298 
L 128.546523 109.940756 
L 129.003068 110.503411 
L 129.611795 111.682365 
L 130.372705 113.69816 
L 131.894523 118.590827 
L 133.264159 122.72115 
L 134.17725 124.888419 
L 135.090341 126.495317 
L 135.85125 127.431774 
L 136.612159 128.055601 
L 137.373068 128.425642 
L 138.286159 128.61205 
L 139.351432 128.572039 
L 140.721068 128.254313 
L 143.155977 127.38027 
L 144.982159 126.842945 
L 146.199614 126.700476 
L 147.417068 126.792588 
L 148.634523 127.117102 
L 150.308523 127.823681 
L 153.047795 128.993112 
L 154.569614 129.396317 
L 156.091432 129.57305 
L 157.308886 129.51347 
L 158.374159 129.238395 
L 159.28725 128.76015 
L 160.200341 127.991637 
L 161.113432 126.894641 
L 162.178705 125.217105 
L 163.852705 122.04249 
L 165.526705 119.000193 
L 166.591977 117.505388 
L 167.505068 116.578644 
L 168.418159 115.959843 
L 169.33125 115.594734 
L 170.396523 115.41334 
L 171.461795 115.442429 
L 172.527068 115.674716 
L 173.592341 116.136606 
L 174.657614 116.856813 
L 175.875068 117.996461 
L 177.396886 119.787426 
L 180.440523 123.458953 
L 181.657977 124.532081 
L 182.72325 125.191367 
L 183.788523 125.606582 
L 185.005977 125.847439 
L 186.527795 125.92034 
L 188.353977 125.785678 
L 190.027977 125.431483 
L 191.397614 124.918236 
L 192.462886 124.313319 
L 193.375977 123.557436 
L 194.136886 122.655552 
L 194.897795 121.376841 
L 195.658705 119.562762 
L 196.419614 117.03447 
L 197.180523 113.62401 
L 197.941432 109.222205 
L 198.854523 102.654479 
L 200.376341 89.717888 
L 201.593795 80.006587 
L 202.354705 75.596494 
L 202.81125 73.890432 
L 203.267795 73.008172 
L 203.572159 72.90498 
L 203.572159 72.90498 
" clip-path="url(#p8d5762770b)" style="fill: none; stroke: #ff7f0e; stroke-width: 1.5; stroke-linecap: square"/>
   </g>
   <g id="line2d_9">
    <path d="M 51.390341 91.969497 
L 51.999068 90.985364 
L 52.455614 90.677021 
L 52.759977 90.670237 
L 53.216523 90.937795 
L 53.673068 91.502604 
L 54.281795 92.630124 
L 55.194886 94.843856 
L 57.17325 99.83284 
L 57.934159 101.229421 
L 58.542886 101.983989 
L 58.999432 102.303327 
L 59.455977 102.390425 
L 59.912523 102.229468 
L 60.369068 101.807745 
L 60.977795 100.825349 
L 61.586523 99.35841 
L 62.347432 96.871293 
L 63.260523 93.067723 
L 66.304159 79.335522 
L 66.912886 77.744888 
L 67.369432 77.065912 
L 67.673795 76.885733 
L 67.978159 76.934972 
L 68.282523 77.218901 
L 68.739068 78.085989 
L 69.195614 79.468266 
L 69.804341 82.050208 
L 70.56525 86.273383 
L 71.782705 94.503263 
L 74.065432 110.167149 
L 75.130705 115.997583 
L 76.043795 119.947049 
L 76.956886 122.965654 
L 77.869977 125.173818 
L 78.630886 126.503973 
L 79.391795 127.461485 
L 80.152705 128.117222 
L 80.913614 128.521455 
L 81.674523 128.700999 
L 82.435432 128.660033 
L 83.196341 128.384894 
L 83.95725 127.852924 
L 84.718159 127.044672 
L 85.63125 125.708303 
L 86.696523 123.716449 
L 89.740159 117.639377 
L 90.65325 116.460124 
L 91.414159 115.858015 
L 92.022886 115.620573 
L 92.783795 115.591547 
L 93.544705 115.799449 
L 94.609977 116.362142 
L 95.979614 117.365721 
L 97.501432 118.759653 
L 99.02325 120.481026 
L 101.305977 123.502661 
L 103.132159 125.790686 
L 104.501795 127.149833 
L 105.71925 128.035323 
L 106.936705 128.634597 
L 108.154159 128.996644 
L 109.523795 129.182936 
L 111.045614 129.173733 
L 112.871795 128.934816 
L 117.741614 128.159859 
L 120.024341 127.866285 
L 121.089614 127.523092 
L 122.154886 126.935813 
L 123.220159 126.075688 
L 124.589795 124.656821 
L 126.720341 122.427778 
L 127.785614 121.647062 
L 128.698705 121.246973 
L 129.611795 121.083697 
L 130.82925 121.133318 
L 133.568523 121.381157 
L 134.633795 121.197199 
L 135.699068 120.768733 
L 136.916523 120.015788 
L 140.416705 117.656709 
L 141.329795 117.392455 
L 142.090705 117.38266 
L 142.851614 117.591979 
L 143.612523 118.035118 
L 144.525614 118.87486 
L 145.590886 120.233619 
L 147.112705 122.643836 
L 149.395432 126.272642 
L 150.612886 127.769039 
L 151.678159 128.719719 
L 152.743432 129.343034 
L 153.808705 129.682021 
L 154.873977 129.791542 
L 156.091432 129.700147 
L 157.461068 129.383125 
L 158.982886 128.799165 
L 160.504705 127.966678 
L 162.178705 126.785771 
L 165.831068 124.104862 
L 167.505068 123.214521 
L 170.396523 121.981203 
L 172.374886 121.316853 
L 173.592341 121.133762 
L 174.657614 121.203656 
L 175.722886 121.52276 
L 176.788159 122.078861 
L 178.309977 123.159813 
L 181.04925 125.149771 
L 182.418886 125.86001 
L 183.788523 126.331536 
L 185.158159 126.584153 
L 186.527795 126.609672 
L 187.74525 126.40046 
L 188.810523 126.003858 
L 190.027977 125.294404 
L 191.397614 124.214873 
L 193.375977 122.342298 
L 195.049977 120.510848 
L 196.11525 118.999029 
L 197.028341 117.243112 
L 197.78925 115.305049 
L 198.702341 112.290901 
L 199.767614 107.840147 
L 202.963432 93.587611 
L 203.572159 91.969497 
L 203.572159 91.969497 
" clip-path="url(#p8d5762770b)" style="fill: none; stroke: #2ca02c; stroke-width: 1.5; stroke-linecap: square"/>
   </g>
   <g id="line2d_10">
    <path d="M 51.390341 107.807376 
L 51.999068 108.406645 
L 52.759977 109.523756 
L 54.129614 112.083558 
L 55.49925 114.513153 
L 56.412341 115.714032 
L 57.17325 116.39279 
L 57.934159 116.7853 
L 58.695068 116.907968 
L 59.303795 116.808585 
L 59.912523 116.506066 
L 60.52125 115.944679 
L 61.129977 115.036357 
L 61.738705 113.66169 
L 62.347432 111.676206 
L 62.956159 108.92251 
L 63.564886 105.248373 
L 64.325795 99.177657 
L 65.238886 89.59964 
L 66.304159 75.603151 
L 69.043432 37.612007 
L 69.652159 32.063691 
L 70.108705 29.2526 
L 70.56525 27.742253 
L 70.869614 27.495268 
L 71.021795 27.603249 
L 71.326159 28.28054 
L 71.630523 29.562177 
L 72.087068 32.564879 
L 72.695795 38.384636 
L 73.456705 47.990535 
L 74.826341 68.814118 
L 76.500341 93.563578 
L 77.565614 106.064495 
L 78.478705 114.208784 
L 79.239614 119.264672 
L 80.000523 122.949987 
L 80.761432 125.49981 
L 81.370159 126.877266 
L 81.978886 127.777961 
L 82.587614 128.285614 
L 83.196341 128.464462 
L 83.805068 128.361332 
L 84.413795 128.009661 
L 85.174705 127.25853 
L 86.087795 125.958538 
L 87.153068 124.010082 
L 90.65325 117.143595 
L 91.566341 116.017376 
L 92.32725 115.455342 
L 92.935977 115.267018 
L 93.544705 115.309358 
L 94.153432 115.571625 
L 94.914341 116.180968 
L 95.827432 117.261717 
L 97.044886 119.131722 
L 101.458159 126.395484 
L 102.675614 127.814413 
L 103.893068 128.892869 
L 105.110523 129.673327 
L 106.480159 130.265059 
L 108.001977 130.653872 
L 109.675977 130.84631 
L 111.654341 130.842815 
L 113.632705 130.621033 
L 115.611068 130.167045 
L 117.589432 129.48367 
L 120.328705 128.273952 
L 124.13325 126.577244 
L 125.350705 126.282645 
L 126.415977 126.260712 
L 127.329068 126.452388 
L 128.394341 126.912074 
L 129.916159 127.867179 
L 132.198886 129.3123 
L 133.568523 129.891846 
L 134.785977 130.178371 
L 136.155614 130.268792 
L 137.52525 130.132959 
L 138.894886 129.761572 
L 140.264523 129.146541 
L 142.090705 128.043346 
L 144.22125 126.799926 
L 145.286523 126.415567 
L 146.351795 126.281309 
L 147.264886 126.379307 
L 148.330159 126.718083 
L 149.699795 127.407034 
L 153.199977 129.295479 
L 154.569614 129.727861 
L 155.93925 129.911537 
L 157.156705 129.861064 
L 158.374159 129.585643 
L 159.439432 129.110555 
L 160.352523 128.477164 
L 161.265614 127.588851 
L 162.330886 126.194908 
L 163.548341 124.156717 
L 167.352886 117.267161 
L 168.113795 116.443698 
L 168.722523 116.039935 
L 169.33125 115.881544 
L 169.939977 115.972236 
L 170.548705 116.302747 
L 171.309614 117.019544 
L 172.222705 118.238489 
L 173.592341 120.506484 
L 176.02725 124.55842 
L 177.244705 126.17028 
L 178.462159 127.41584 
L 179.679614 128.317078 
L 180.897068 128.925175 
L 182.266705 129.332345 
L 183.788523 129.527146 
L 185.310341 129.504386 
L 186.679977 129.287037 
L 187.897432 128.891205 
L 189.114886 128.250171 
L 190.332341 127.319591 
L 191.549795 126.078547 
L 192.919432 124.320565 
L 194.44125 121.959751 
L 196.11525 118.911158 
L 197.941432 115.091759 
L 200.376341 109.93554 
L 201.289432 108.503243 
L 201.898159 107.867314 
L 202.506886 107.545917 
L 202.963432 107.528874 
L 203.419977 107.706225 
L 203.572159 107.807376 
L 203.572159 107.807376 
" clip-path="url(#p8d5762770b)" style="fill: none; stroke: #d62728; stroke-width: 1.5; stroke-linecap: square"/>
   </g>
   <g id="LineCollection_1">
    <path d="M 51.390341 131.038125 
L 51.390341 51.45334 
" clip-path="url(#p8d5762770b)" style="fill: none; stroke-dasharray: 1.5,2.475; stroke-dashoffset: 0; stroke: #800080; stroke-width: 1.5"/>
    <path d="M 81.826705 131.038125 
L 81.826705 51.45334 
" clip-path="url(#p8d5762770b)" style="fill: none; stroke-dasharray: 1.5,2.475; stroke-dashoffset: 0; stroke: #800080; stroke-width: 1.5"/>
    <path d="M 112.263068 131.038125 
L 112.263068 51.45334 
" clip-path="url(#p8d5762770b)" style="fill: none; stroke-dasharray: 1.5,2.475; stroke-dashoffset: 0; stroke: #800080; stroke-width: 1.5"/>
    <path d="M 142.699432 131.038125 
L 142.699432 51.45334 
" clip-path="url(#p8d5762770b)" style="fill: none; stroke-dasharray: 1.5,2.475; stroke-dashoffset: 0; stroke: #800080; stroke-width: 1.5"/>
    <path d="M 173.135795 131.038125 
L 173.135795 51.45334 
" clip-path="url(#p8d5762770b)" style="fill: none; stroke-dasharray: 1.5,2.475; stroke-dashoffset: 0; stroke: #800080; stroke-width: 1.5"/>
    <path d="M 203.572159 131.038125 
L 203.572159 51.45334 
" clip-path="url(#p8d5762770b)" style="fill: none; stroke-dasharray: 1.5,2.475; stroke-dashoffset: 0; stroke: #800080; stroke-width: 1.5"/>
   </g>
   <g id="patch_53">
    <path d="M 43.78125 131.038125 
L 43.78125 22.318125 
" style="fill: none; stroke: #000000; stroke-width: 0.8; stroke-linejoin: miter; stroke-linecap: square"/>
   </g>
   <g id="patch_54">
    <path d="M 43.78125 131.038125 
L 211.18125 131.038125 
" style="fill: none; stroke: #000000; stroke-width: 0.8; stroke-linejoin: miter; stroke-linecap: square"/>
   </g>
   <g id="text_10">
    <!-- Grid orientation (circular plot) -->
    <g transform="translate(37.9575 16.318125)scale(0.12 -0.12)">
     <defs>
      <path id="DejaVuSans-47" d="M 3809 666 
L 3809 1919 
L 2778 1919 
L 2778 2438 
L 4434 2438 
L 4434 434 
Q 4069 175 3628 42 
Q 3188 -91 2688 -91 
Q 1594 -91 976 548 
Q 359 1188 359 2328 
Q 359 3472 976 4111 
Q 1594 4750 2688 4750 
Q 3144 4750 3555 4637 
Q 3966 4525 4313 4306 
L 4313 3634 
Q 3963 3931 3569 4081 
Q 3175 4231 2741 4231 
Q 1884 4231 1454 3753 
Q 1025 3275 1025 2328 
Q 1025 1384 1454 906 
Q 1884 428 2741 428 
Q 3075 428 3337 486 
Q 3600 544 3809 666 
z
" transform="scale(0.015625)"/>
      <path id="DejaVuSans-72" d="M 2631 2963 
Q 2534 3019 2420 3045 
Q 2306 3072 2169 3072 
Q 1681 3072 1420 2755 
Q 1159 2438 1159 1844 
L 1159 0 
L 581 0 
L 581 3500 
L 1159 3500 
L 1159 2956 
Q 1341 3275 1631 3429 
Q 1922 3584 2338 3584 
Q 2397 3584 2469 3576 
Q 2541 3569 2628 3553 
L 2631 2963 
z
" transform="scale(0.015625)"/>
      <path id="DejaVuSans-20" transform="scale(0.015625)"/>
      <path id="DejaVuSans-6f" d="M 1959 3097 
Q 1497 3097 1228 2736 
Q 959 2375 959 1747 
Q 959 1119 1226 758 
Q 1494 397 1959 397 
Q 2419 397 2687 759 
Q 2956 1122 2956 1747 
Q 2956 2369 2687 2733 
Q 2419 3097 1959 3097 
z
M 1959 3584 
Q 2709 3584 3137 3096 
Q 3566 2609 3566 1747 
Q 3566 888 3137 398 
Q 2709 -91 1959 -91 
Q 1206 -91 779 398 
Q 353 888 353 1747 
Q 353 2609 779 3096 
Q 1206 3584 1959 3584 
z
" transform="scale(0.015625)"/>
      <path id="DejaVuSans-28" d="M 1984 4856 
Q 1566 4138 1362 3434 
Q 1159 2731 1159 2009 
Q 1159 1288 1364 580 
Q 1569 -128 1984 -844 
L 1484 -844 
Q 1016 -109 783 600 
Q 550 1309 550 2009 
Q 550 2706 781 3412 
Q 1013 4119 1484 4856 
L 1984 4856 
z
" transform="scale(0.015625)"/>
      <path id="DejaVuSans-63" d="M 3122 3366 
L 3122 2828 
Q 2878 2963 2633 3030 
Q 2388 3097 2138 3097 
Q 1578 3097 1268 2742 
Q 959 2388 959 1747 
Q 959 1106 1268 751 
Q 1578 397 2138 397 
Q 2388 397 2633 464 
Q 2878 531 3122 666 
L 3122 134 
Q 2881 22 2623 -34 
Q 2366 -91 2075 -91 
Q 1284 -91 818 406 
Q 353 903 353 1747 
Q 353 2603 823 3093 
Q 1294 3584 2113 3584 
Q 2378 3584 2631 3529 
Q 2884 3475 3122 3366 
z
" transform="scale(0.015625)"/>
      <path id="DejaVuSans-75" d="M 544 1381 
L 544 3500 
L 1119 3500 
L 1119 1403 
Q 1119 906 1312 657 
Q 1506 409 1894 409 
Q 2359 409 2629 706 
Q 2900 1003 2900 1516 
L 2900 3500 
L 3475 3500 
L 3475 0 
L 2900 0 
L 2900 538 
Q 2691 219 2414 64 
Q 2138 -91 1772 -91 
Q 1169 -91 856 284 
Q 544 659 544 1381 
z
M 1991 3584 
L 1991 3584 
z
" transform="scale(0.015625)"/>
      <path id="DejaVuSans-6c" d="M 603 4863 
L 1178 4863 
L 1178 0 
L 603 0 
L 603 4863 
z
" transform="scale(0.015625)"/>
      <path id="DejaVuSans-70" d="M 1159 525 
L 1159 -1331 
L 581 -1331 
L 581 3500 
L 1159 3500 
L 1159 2969 
Q 1341 3281 1617 3432 
Q 1894 3584 2278 3584 
Q 2916 3584 3314 3078 
Q 3713 2572 3713 1747 
Q 3713 922 3314 415 
Q 2916 -91 2278 -91 
Q 1894 -91 1617 61 
Q 1341 213 1159 525 
z
M 3116 1747 
Q 3116 2381 2855 2742 
Q 2594 3103 2138 3103 
Q 1681 3103 1420 2742 
Q 1159 2381 1159 1747 
Q 1159 1113 1420 752 
Q 1681 391 2138 391 
Q 2594 391 2855 752 
Q 3116 1113 3116 1747 
z
" transform="scale(0.015625)"/>
      <path id="DejaVuSans-29" d="M 513 4856 
L 1013 4856 
Q 1481 4119 1714 3412 
Q 1947 2706 1947 2009 
Q 1947 1309 1714 600 
Q 1481 -109 1013 -844 
L 513 -844 
Q 928 -128 1133 580 
Q 1338 1288 1338 2009 
Q 1338 2731 1133 3434 
Q 928 4138 513 4856 
z
" transform="scale(0.015625)"/>
     </defs>
     <use xlink:href="#DejaVuSans-47"/>
     <use xlink:href="#DejaVuSans-72" x="77.490234"/>
     <use xlink:href="#DejaVuSans-69" x="118.603516"/>
     <use xlink:href="#DejaVuSans-64" x="146.386719"/>
     <use xlink:href="#DejaVuSans-20" x="209.863281"/>
     <use xlink:href="#DejaVuSans-6f" x="241.650391"/>
     <use xlink:href="#DejaVuSans-72" x="302.832031"/>
     <use xlink:href="#DejaVuSans-69" x="343.945312"/>
     <use xlink:href="#DejaVuSans-65" x="371.728516"/>
     <use xlink:href="#DejaVuSans-6e" x="433.251953"/>
     <use xlink:href="#DejaVuSans-74" x="496.630859"/>
     <use xlink:href="#DejaVuSans-61" x="535.839844"/>
     <use xlink:href="#DejaVuSans-74" x="597.119141"/>
     <use xlink:href="#DejaVuSans-69" x="636.328125"/>
     <use xlink:href="#DejaVuSans-6f" x="664.111328"/>
     <use xlink:href="#DejaVuSans-6e" x="725.292969"/>
     <use xlink:href="#DejaVuSans-20" x="788.671875"/>
     <use xlink:href="#DejaVuSans-28" x="820.458984"/>
     <use xlink:href="#DejaVuSans-63" x="859.472656"/>
     <use xlink:href="#DejaVuSans-69" x="914.453125"/>
     <use xlink:href="#DejaVuSans-72" x="942.236328"/>
     <use xlink:href="#DejaVuSans-63" x="981.099609"/>
     <use xlink:href="#DejaVuSans-75" x="1036.080078"/>
     <use xlink:href="#DejaVuSans-6c" x="1099.458984"/>
     <use xlink:href="#DejaVuSans-61" x="1127.242188"/>
     <use xlink:href="#DejaVuSans-72" x="1188.521484"/>
     <use xlink:href="#DejaVuSans-20" x="1229.634766"/>
     <use xlink:href="#DejaVuSans-70" x="1261.421875"/>
     <use xlink:href="#DejaVuSans-6c" x="1324.898438"/>
     <use xlink:href="#DejaVuSans-6f" x="1352.681641"/>
     <use xlink:href="#DejaVuSans-74" x="1413.863281"/>
     <use xlink:href="#DejaVuSans-29" x="1453.072266"/>
    </g>
   </g>
   <g id="legend_1">
    <g id="text_11">
     <!-- Environment -->
     <g transform="translate(95.557812 38.916562)scale(0.1 -0.1)">
      <defs>
       <path id="DejaVuSans-45" d="M 628 4666 
L 3578 4666 
L 3578 4134 
L 1259 4134 
L 1259 2753 
L 3481 2753 
L 3481 2222 
L 1259 2222 
L 1259 531 
L 3634 531 
L 3634 0 
L 628 0 
L 628 4666 
z
" transform="scale(0.015625)"/>
       <path id="DejaVuSans-76" d="M 191 3500 
L 800 3500 
L 1894 563 
L 2988 3500 
L 3597 3500 
L 2284 0 
L 1503 0 
L 191 3500 
z
" transform="scale(0.015625)"/>
       <path id="DejaVuSans-6d" d="M 3328 2828 
Q 3544 3216 3844 3400 
Q 4144 3584 4550 3584 
Q 5097 3584 5394 3201 
Q 5691 2819 5691 2113 
L 5691 0 
L 5113 0 
L 5113 2094 
Q 5113 2597 4934 2840 
Q 4756 3084 4391 3084 
Q 3944 3084 3684 2787 
Q 3425 2491 3425 1978 
L 3425 0 
L 2847 0 
L 2847 2094 
Q 2847 2600 2669 2842 
Q 2491 3084 2119 3084 
Q 1678 3084 1418 2786 
Q 1159 2488 1159 1978 
L 1159 0 
L 581 0 
L 581 3500 
L 1159 3500 
L 1159 2956 
Q 1356 3278 1631 3431 
Q 1906 3584 2284 3584 
Q 2666 3584 2933 3390 
Q 3200 3197 3328 2828 
z
" transform="scale(0.015625)"/>
      </defs>
      <use xlink:href="#DejaVuSans-45"/>
      <use xlink:href="#DejaVuSans-6e" x="63.183594"/>
      <use xlink:href="#DejaVuSans-76" x="126.5625"/>
      <use xlink:href="#DejaVuSans-69" x="185.742188"/>
      <use xlink:href="#DejaVuSans-72" x="213.525391"/>
      <use xlink:href="#DejaVuSans-6f" x="252.388672"/>
      <use xlink:href="#DejaVuSans-6e" x="313.570312"/>
      <use xlink:href="#DejaVuSans-6d" x="376.949219"/>
      <use xlink:href="#DejaVuSans-65" x="474.361328"/>
      <use xlink:href="#DejaVuSans-6e" x="535.884766"/>
      <use xlink:href="#DejaVuSans-74" x="599.263672"/>
     </g>
    </g>
    <g id="line2d_11">
     <path d="M 110.3 50.094687 
L 120.3 50.094687 
L 130.3 50.094687 
" style="fill: none; stroke: #ff7f0e; stroke-width: 1.5; stroke-linecap: square"/>
    </g>
    <g id="text_12">
     <!-- 0 -->
     <g transform="translate(138.3 53.594687)scale(0.1 -0.1)">
      <use xlink:href="#DejaVuSans-30"/>
     </g>
    </g>
    <g id="line2d_12">
     <path d="M 110.3 64.772812 
L 120.3 64.772812 
L 130.3 64.772812 
" style="fill: none; stroke: #2ca02c; stroke-width: 1.5; stroke-linecap: square"/>
    </g>
    <g id="text_13">
     <!-- 1 -->
     <g transform="translate(138.3 68.272812)scale(0.1 -0.1)">
      <use xlink:href="#DejaVuSans-31"/>
     </g>
    </g>
    <g id="line2d_13">
     <path d="M 110.3 79.450937 
L 120.3 79.450937 
L 130.3 79.450937 
" style="fill: none; stroke: #d62728; stroke-width: 1.5; stroke-linecap: square"/>
    </g>
    <g id="text_14">
     <!-- 2 -->
     <g transform="translate(138.3 82.950937)scale(0.1 -0.1)">
      <use xlink:href="#DejaVuSans-32"/>
     </g>
    </g>
   </g>
  </g>
 </g>
 <defs>
  <clipPath id="p8d5762770b">
   <rect x="43.78125" y="22.318125" width="167.4" height="108.72"/>
  </clipPath>
 </defs>
</svg>
