<?xml version="1.0" encoding="utf-8" standalone="no"?>
<!DOCTYPE svg PUBLIC "-//W3C//DTD SVG 1.1//EN"
  "http://www.w3.org/Graphics/SVG/1.1/DTD/svg11.dtd">
<svg xmlns:xlink="http://www.w3.org/1999/xlink" width="822.640625pt" height="386.034375pt" viewBox="0 0 822.640625 386.034375" xmlns="http://www.w3.org/2000/svg" version="1.1">
 <metadata>
  <rdf:RDF xmlns:dc="http://purl.org/dc/elements/1.1/" xmlns:cc="http://creativecommons.org/ns#" xmlns:rdf="http://www.w3.org/1999/02/22-rdf-syntax-ns#">
   <cc:Work>
    <dc:type rdf:resource="http://purl.org/dc/dcmitype/StillImage"/>
    <dc:date>2022-03-18T21:50:29.159773</dc:date>
    <dc:format>image/svg+xml</dc:format>
    <dc:creator>
     <cc:Agent>
      <dc:title>Matplotlib v3.5.1, https://matplotlib.org/</dc:title>
     </cc:Agent>
    </dc:creator>
   </cc:Work>
  </rdf:RDF>
 </metadata>
 <defs>
  <style type="text/css">*{stroke-linejoin: round; stroke-linecap: butt}</style>
 </defs>
 <g id="figure_1">
  <g id="patch_1">
   <path d="M 0 386.034375 
L 822.640625 386.034375 
L 822.640625 0 
L 0 0 
L 0 386.034375 
z
" style="fill: none"/>
  </g>
  <g id="axes_1">
   <g id="patch_2">
    <path d="M 34.240625 348.478125 
L 815.440625 348.478125 
L 815.440625 22.318125 
L 34.240625 22.318125 
L 34.240625 348.478125 
z
" style="fill: none"/>
   </g>
   <g id="patch_3">
    <path d="M 97.254486 348.478125 
L 110.357931 348.478125 
L 110.357931 347.496676 
L 97.254486 347.496676 
z
" clip-path="url(#p978090a1eb)" style="fill: #1f77b4"/>
   </g>
   <g id="patch_4">
    <path d="M 110.357931 348.478125 
L 123.461377 348.478125 
L 123.461377 346.024503 
L 110.357931 346.024503 
z
" clip-path="url(#p978090a1eb)" style="fill: #1f77b4"/>
   </g>
   <g id="patch_5">
    <path d="M 123.461377 348.478125 
L 136.564822 348.478125 
L 136.564822 337.191463 
L 123.461377 337.191463 
z
" clip-path="url(#p978090a1eb)" style="fill: #1f77b4"/>
   </g>
   <g id="patch_6">
    <path d="M 136.564822 348.478125 
L 149.668268 348.478125 
L 149.668268 315.599587 
L 136.564822 315.599587 
z
" clip-path="url(#p978090a1eb)" style="fill: #1f77b4"/>
   </g>
   <g id="patch_7">
    <path d="M 149.668268 348.478125 
L 162.771713 348.478125 
L 162.771713 296.952059 
L 149.668268 296.952059 
z
" clip-path="url(#p978090a1eb)" style="fill: #1f77b4"/>
   </g>
   <g id="patch_8">
    <path d="M 162.771713 348.478125 
L 175.875159 348.478125 
L 175.875159 186.293697 
L 162.771713 186.293697 
z
" clip-path="url(#p978090a1eb)" style="fill: #1f77b4"/>
   </g>
   <g id="patch_9">
    <path d="M 175.875159 348.478125 
L 188.978605 348.478125 
L 188.978605 206.658761 
L 175.875159 206.658761 
z
" clip-path="url(#p978090a1eb)" style="fill: #1f77b4"/>
   </g>
   <g id="patch_10">
    <path d="M 188.978605 348.478125 
L 202.08205 348.478125 
L 202.08205 37.849554 
L 188.978605 37.849554 
z
" clip-path="url(#p978090a1eb)" style="fill: #1f77b4"/>
   </g>
   <g id="patch_11">
    <path d="M 202.08205 348.478125 
L 215.185496 348.478125 
L 215.185496 184.085437 
L 202.08205 184.085437 
z
" clip-path="url(#p978090a1eb)" style="fill: #1f77b4"/>
   </g>
   <g id="patch_12">
    <path d="M 215.185496 348.478125 
L 228.288941 348.478125 
L 228.288941 284.193223 
L 215.185496 284.193223 
z
" clip-path="url(#p978090a1eb)" style="fill: #1f77b4"/>
   </g>
   <g id="patch_13">
    <path d="M 228.288941 348.478125 
L 241.392387 348.478125 
L 241.392387 320.016107 
L 228.288941 320.016107 
z
" clip-path="url(#p978090a1eb)" style="fill: #1f77b4"/>
   </g>
   <g id="patch_14">
    <path d="M 241.392387 348.478125 
L 254.495832 348.478125 
L 254.495832 339.890447 
L 241.392387 339.890447 
z
" clip-path="url(#p978090a1eb)" style="fill: #1f77b4"/>
   </g>
   <g id="patch_15">
    <path d="M 254.495832 348.478125 
L 267.599278 348.478125 
L 267.599278 337.92755 
L 254.495832 337.92755 
z
" clip-path="url(#p978090a1eb)" style="fill: #1f77b4"/>
   </g>
   <g id="patch_16">
    <path d="M 267.599278 348.478125 
L 280.702724 348.478125 
L 280.702724 338.172912 
L 267.599278 338.172912 
z
" clip-path="url(#p978090a1eb)" style="fill: #1f77b4"/>
   </g>
   <g id="patch_17">
    <path d="M 280.702724 348.478125 
L 293.806169 348.478125 
L 293.806169 339.645085 
L 280.702724 339.645085 
z
" clip-path="url(#p978090a1eb)" style="fill: #1f77b4"/>
   </g>
   <g id="patch_18">
    <path d="M 293.806169 348.478125 
L 306.909615 348.478125 
L 306.909615 338.908998 
L 293.806169 338.908998 
z
" clip-path="url(#p978090a1eb)" style="fill: #1f77b4"/>
   </g>
   <g id="patch_19">
    <path d="M 306.909615 348.478125 
L 320.01306 348.478125 
L 320.01306 338.908998 
L 306.909615 338.908998 
z
" clip-path="url(#p978090a1eb)" style="fill: #1f77b4"/>
   </g>
   <g id="patch_20">
    <path d="M 320.01306 348.478125 
L 333.116506 348.478125 
L 333.116506 339.890447 
L 320.01306 339.890447 
z
" clip-path="url(#p978090a1eb)" style="fill: #1f77b4"/>
   </g>
   <g id="patch_21">
    <path d="M 333.116506 348.478125 
L 346.219952 348.478125 
L 346.219952 338.172912 
L 333.116506 338.172912 
z
" clip-path="url(#p978090a1eb)" style="fill: #1f77b4"/>
   </g>
   <g id="patch_22">
    <path d="M 346.219952 348.478125 
L 359.323397 348.478125 
L 359.323397 340.871896 
L 346.219952 340.871896 
z
" clip-path="url(#p978090a1eb)" style="fill: #1f77b4"/>
   </g>
   <g id="patch_23">
    <path d="M 359.323397 348.478125 
L 372.426843 348.478125 
L 372.426843 336.946101 
L 359.323397 336.946101 
z
" clip-path="url(#p978090a1eb)" style="fill: #1f77b4"/>
   </g>
   <g id="patch_24">
    <path d="M 372.426843 348.478125 
L 385.530288 348.478125 
L 385.530288 335.964652 
L 372.426843 335.964652 
z
" clip-path="url(#p978090a1eb)" style="fill: #1f77b4"/>
   </g>
   <g id="patch_25">
    <path d="M 385.530288 348.478125 
L 398.633734 348.478125 
L 398.633734 331.057407 
L 385.530288 331.057407 
z
" clip-path="url(#p978090a1eb)" style="fill: #1f77b4"/>
   </g>
   <g id="patch_26">
    <path d="M 398.633734 348.478125 
L 411.737179 348.478125 
L 411.737179 334.737841 
L 398.633734 334.737841 
z
" clip-path="url(#p978090a1eb)" style="fill: #1f77b4"/>
   </g>
   <g id="patch_27">
    <path d="M 411.737179 348.478125 
L 424.840625 348.478125 
L 424.840625 338.663636 
L 411.737179 338.663636 
z
" clip-path="url(#p978090a1eb)" style="fill: #1f77b4"/>
   </g>
   <g id="patch_28">
    <path d="M 424.840625 348.478125 
L 437.944071 348.478125 
L 437.944071 342.344069 
L 424.840625 342.344069 
z
" clip-path="url(#p978090a1eb)" style="fill: #1f77b4"/>
   </g>
   <g id="patch_29">
    <path d="M 437.944071 348.478125 
L 451.047516 348.478125 
L 451.047516 344.306967 
L 437.944071 344.306967 
z
" clip-path="url(#p978090a1eb)" style="fill: #1f77b4"/>
   </g>
   <g id="patch_30">
    <path d="M 451.047516 348.478125 
L 464.150962 348.478125 
L 464.150962 346.760589 
L 451.047516 346.760589 
z
" clip-path="url(#p978090a1eb)" style="fill: #1f77b4"/>
   </g>
   <g id="patch_31">
    <path d="M 464.150962 348.478125 
L 477.254407 348.478125 
L 477.254407 346.024503 
L 464.150962 346.024503 
z
" clip-path="url(#p978090a1eb)" style="fill: #1f77b4"/>
   </g>
   <g id="patch_32">
    <path d="M 477.254407 348.478125 
L 490.357853 348.478125 
L 490.357853 347.251314 
L 477.254407 347.251314 
z
" clip-path="url(#p978090a1eb)" style="fill: #1f77b4"/>
   </g>
   <g id="patch_33">
    <path d="M 490.357853 348.478125 
L 503.461298 348.478125 
L 503.461298 347.005952 
L 490.357853 347.005952 
z
" clip-path="url(#p978090a1eb)" style="fill: #1f77b4"/>
   </g>
   <g id="patch_34">
    <path d="M 503.461298 348.478125 
L 516.564744 348.478125 
L 516.564744 348.232763 
L 503.461298 348.232763 
z
" clip-path="url(#p978090a1eb)" style="fill: #1f77b4"/>
   </g>
   <g id="patch_35">
    <path d="M 516.564744 348.478125 
L 529.66819 348.478125 
L 529.66819 348.478125 
L 516.564744 348.478125 
z
" clip-path="url(#p978090a1eb)" style="fill: #1f77b4"/>
   </g>
   <g id="patch_36">
    <path d="M 529.66819 348.478125 
L 542.771635 348.478125 
L 542.771635 348.232763 
L 529.66819 348.232763 
z
" clip-path="url(#p978090a1eb)" style="fill: #1f77b4"/>
   </g>
   <g id="patch_37">
    <path d="M 542.771635 348.478125 
L 555.875081 348.478125 
L 555.875081 348.478125 
L 542.771635 348.478125 
z
" clip-path="url(#p978090a1eb)" style="fill: #1f77b4"/>
   </g>
   <g id="patch_38">
    <path d="M 555.875081 348.478125 
L 568.978526 348.478125 
L 568.978526 347.742038 
L 555.875081 347.742038 
z
" clip-path="url(#p978090a1eb)" style="fill: #1f77b4"/>
   </g>
   <g id="patch_39">
    <path d="M 568.978526 348.478125 
L 582.081972 348.478125 
L 582.081972 348.478125 
L 568.978526 348.478125 
z
" clip-path="url(#p978090a1eb)" style="fill: #1f77b4"/>
   </g>
   <g id="patch_40">
    <path d="M 582.081972 348.478125 
L 595.185418 348.478125 
L 595.185418 347.987401 
L 582.081972 347.987401 
z
" clip-path="url(#p978090a1eb)" style="fill: #1f77b4"/>
   </g>
   <g id="patch_41">
    <path d="M 595.185418 348.478125 
L 608.288863 348.478125 
L 608.288863 348.232763 
L 595.185418 348.232763 
z
" clip-path="url(#p978090a1eb)" style="fill: #1f77b4"/>
   </g>
   <g id="patch_42">
    <path d="M 608.288863 348.478125 
L 621.392309 348.478125 
L 621.392309 347.496676 
L 608.288863 347.496676 
z
" clip-path="url(#p978090a1eb)" style="fill: #1f77b4"/>
   </g>
   <g id="patch_43">
    <path d="M 621.392309 348.478125 
L 634.495754 348.478125 
L 634.495754 348.232763 
L 621.392309 348.232763 
z
" clip-path="url(#p978090a1eb)" style="fill: #1f77b4"/>
   </g>
   <g id="patch_44">
    <path d="M 634.495754 348.478125 
L 647.5992 348.478125 
L 647.5992 348.232763 
L 634.495754 348.232763 
z
" clip-path="url(#p978090a1eb)" style="fill: #1f77b4"/>
   </g>
   <g id="patch_45">
    <path d="M 647.5992 348.478125 
L 660.702645 348.478125 
L 660.702645 348.478125 
L 647.5992 348.478125 
z
" clip-path="url(#p978090a1eb)" style="fill: #1f77b4"/>
   </g>
   <g id="patch_46">
    <path d="M 660.702645 348.478125 
L 673.806091 348.478125 
L 673.806091 348.478125 
L 660.702645 348.478125 
z
" clip-path="url(#p978090a1eb)" style="fill: #1f77b4"/>
   </g>
   <g id="patch_47">
    <path d="M 673.806091 348.478125 
L 686.909537 348.478125 
L 686.909537 348.478125 
L 673.806091 348.478125 
z
" clip-path="url(#p978090a1eb)" style="fill: #1f77b4"/>
   </g>
   <g id="patch_48">
    <path d="M 686.909537 348.478125 
L 700.012982 348.478125 
L 700.012982 348.232763 
L 686.909537 348.232763 
z
" clip-path="url(#p978090a1eb)" style="fill: #1f77b4"/>
   </g>
   <g id="patch_49">
    <path d="M 700.012982 348.478125 
L 713.116428 348.478125 
L 713.116428 348.232763 
L 700.012982 348.232763 
z
" clip-path="url(#p978090a1eb)" style="fill: #1f77b4"/>
   </g>
   <g id="patch_50">
    <path d="M 713.116428 348.478125 
L 726.219873 348.478125 
L 726.219873 348.478125 
L 713.116428 348.478125 
z
" clip-path="url(#p978090a1eb)" style="fill: #1f77b4"/>
   </g>
   <g id="patch_51">
    <path d="M 726.219873 348.478125 
L 739.323319 348.478125 
L 739.323319 348.478125 
L 726.219873 348.478125 
z
" clip-path="url(#p978090a1eb)" style="fill: #1f77b4"/>
   </g>
   <g id="patch_52">
    <path d="M 739.323319 348.478125 
L 752.426764 348.478125 
L 752.426764 347.987401 
L 739.323319 347.987401 
z
" clip-path="url(#p978090a1eb)" style="fill: #1f77b4"/>
   </g>
   <g id="PolyCollection_1">
    <defs>
     <path id="ma5008092ae" d="M 82.248791 -37.561803 
L 82.248791 -37.55625 
L 85.151356 -37.55625 
L 88.053921 -37.55625 
L 90.956486 -37.55625 
L 93.859051 -37.55625 
L 96.761616 -37.55625 
L 99.664181 -37.55625 
L 102.566746 -37.55625 
L 105.469311 -37.55625 
L 108.371876 -37.55625 
L 111.274441 -37.55625 
L 114.177006 -37.55625 
L 117.079571 -37.55625 
L 119.982136 -37.55625 
L 122.884701 -37.55625 
L 125.787266 -37.55625 
L 128.689831 -37.55625 
L 131.592396 -37.55625 
L 134.494961 -37.55625 
L 137.397526 -37.55625 
L 140.300091 -37.55625 
L 143.202656 -37.55625 
L 146.105221 -37.55625 
L 149.007786 -37.55625 
L 151.910351 -37.55625 
L 154.812916 -37.55625 
L 157.715481 -37.55625 
L 160.618046 -37.55625 
L 163.520611 -37.55625 
L 166.423176 -37.55625 
L 169.325741 -37.55625 
L 172.228306 -37.55625 
L 175.130871 -37.55625 
L 178.033436 -37.55625 
L 180.936001 -37.55625 
L 183.838566 -37.55625 
L 186.741131 -37.55625 
L 189.643696 -37.55625 
L 192.546261 -37.55625 
L 195.448826 -37.55625 
L 198.351391 -37.55625 
L 201.253956 -37.55625 
L 204.156521 -37.55625 
L 207.059086 -37.55625 
L 209.961651 -37.55625 
L 212.864216 -37.55625 
L 215.766781 -37.55625 
L 218.669346 -37.55625 
L 221.571911 -37.55625 
L 224.474476 -37.55625 
L 227.377041 -37.55625 
L 230.279606 -37.55625 
L 233.182171 -37.55625 
L 236.084736 -37.55625 
L 238.987301 -37.55625 
L 241.889866 -37.55625 
L 244.792431 -37.55625 
L 247.694996 -37.55625 
L 250.597561 -37.55625 
L 253.500126 -37.55625 
L 256.402691 -37.55625 
L 259.305256 -37.55625 
L 262.207821 -37.55625 
L 265.110386 -37.55625 
L 268.012951 -37.55625 
L 270.915516 -37.55625 
L 273.818081 -37.55625 
L 276.720646 -37.55625 
L 279.623211 -37.55625 
L 282.525776 -37.55625 
L 285.428341 -37.55625 
L 288.330906 -37.55625 
L 291.233471 -37.55625 
L 294.136036 -37.55625 
L 297.038601 -37.55625 
L 299.941166 -37.55625 
L 302.843731 -37.55625 
L 305.746296 -37.55625 
L 308.648861 -37.55625 
L 311.551426 -37.55625 
L 314.453991 -37.55625 
L 317.356556 -37.55625 
L 320.259121 -37.55625 
L 323.161686 -37.55625 
L 326.064251 -37.55625 
L 328.966816 -37.55625 
L 331.869381 -37.55625 
L 334.771946 -37.55625 
L 337.674511 -37.55625 
L 340.577076 -37.55625 
L 343.479641 -37.55625 
L 346.382206 -37.55625 
L 349.284771 -37.55625 
L 352.187336 -37.55625 
L 355.089901 -37.55625 
L 357.992466 -37.55625 
L 360.895031 -37.55625 
L 363.797596 -37.55625 
L 366.700161 -37.55625 
L 369.602726 -37.55625 
L 372.505291 -37.55625 
L 375.407856 -37.55625 
L 378.310421 -37.55625 
L 381.212986 -37.55625 
L 384.115551 -37.55625 
L 387.018116 -37.55625 
L 389.920681 -37.55625 
L 392.823246 -37.55625 
L 395.725811 -37.55625 
L 398.628376 -37.55625 
L 401.530941 -37.55625 
L 404.433506 -37.55625 
L 407.336071 -37.55625 
L 410.238636 -37.55625 
L 413.141201 -37.55625 
L 416.043766 -37.55625 
L 418.946331 -37.55625 
L 421.848896 -37.55625 
L 424.751461 -37.55625 
L 427.654026 -37.55625 
L 430.556591 -37.55625 
L 433.459156 -37.55625 
L 436.361721 -37.55625 
L 439.264286 -37.55625 
L 442.166851 -37.55625 
L 445.069416 -37.55625 
L 447.971981 -37.55625 
L 450.874546 -37.55625 
L 453.777111 -37.55625 
L 456.679676 -37.55625 
L 459.582241 -37.55625 
L 462.484806 -37.55625 
L 465.387371 -37.55625 
L 468.289936 -37.55625 
L 471.192501 -37.55625 
L 474.095066 -37.55625 
L 476.997631 -37.55625 
L 479.900196 -37.55625 
L 482.802761 -37.55625 
L 485.705326 -37.55625 
L 488.607891 -37.55625 
L 491.510456 -37.55625 
L 494.413021 -37.55625 
L 497.315586 -37.55625 
L 500.21815 -37.55625 
L 503.120715 -37.55625 
L 506.02328 -37.55625 
L 508.925845 -37.55625 
L 511.82841 -37.55625 
L 514.730975 -37.55625 
L 517.63354 -37.55625 
L 520.536105 -37.55625 
L 523.43867 -37.55625 
L 526.341235 -37.55625 
L 529.2438 -37.55625 
L 532.146365 -37.55625 
L 535.04893 -37.55625 
L 537.951495 -37.55625 
L 540.85406 -37.55625 
L 543.756625 -37.55625 
L 546.65919 -37.55625 
L 549.561755 -37.55625 
L 552.46432 -37.55625 
L 555.366885 -37.55625 
L 558.26945 -37.55625 
L 561.172015 -37.55625 
L 564.07458 -37.55625 
L 566.977145 -37.55625 
L 569.87971 -37.55625 
L 572.782275 -37.55625 
L 575.68484 -37.55625 
L 578.587405 -37.55625 
L 581.48997 -37.55625 
L 584.392535 -37.55625 
L 587.2951 -37.55625 
L 590.197665 -37.55625 
L 593.10023 -37.55625 
L 596.002795 -37.55625 
L 598.90536 -37.55625 
L 601.807925 -37.55625 
L 604.71049 -37.55625 
L 607.613055 -37.55625 
L 610.51562 -37.55625 
L 613.418185 -37.55625 
L 616.32075 -37.55625 
L 619.223315 -37.55625 
L 622.12588 -37.55625 
L 625.028445 -37.55625 
L 627.93101 -37.55625 
L 630.833575 -37.55625 
L 633.73614 -37.55625 
L 636.638705 -37.55625 
L 639.54127 -37.55625 
L 642.443835 -37.55625 
L 645.3464 -37.55625 
L 648.248965 -37.55625 
L 651.15153 -37.55625 
L 654.054095 -37.55625 
L 656.95666 -37.55625 
L 659.859225 -37.55625 
L 659.859225 -37.561705 
L 659.859225 -37.561705 
L 656.95666 -37.571903 
L 654.054095 -37.595279 
L 651.15153 -37.640814 
L 648.248965 -37.715462 
L 645.3464 -37.816724 
L 642.443835 -37.926549 
L 639.54127 -38.013693 
L 636.638705 -38.047292 
L 633.73614 -38.014285 
L 630.833575 -37.927508 
L 627.93101 -37.817737 
L 625.028445 -37.716288 
L 622.12588 -37.641363 
L 619.223315 -37.595583 
L 616.32075 -37.572045 
L 613.418185 -37.561762 
L 610.51562 -37.557921 
L 607.613055 -37.556691 
L 604.71049 -37.556353 
L 601.807925 -37.556282 
L 598.90536 -37.556315 
L 596.002795 -37.556532 
L 593.10023 -37.557368 
L 590.197665 -37.560102 
L 587.2951 -37.567785 
L 584.392535 -37.586264 
L 581.48997 -37.624115 
L 578.587405 -37.689592 
L 575.68484 -37.783909 
L 572.782275 -37.894004 
L 569.87971 -37.991684 
L 566.977145 -38.044087 
L 564.07458 -38.031351 
L 561.172015 -37.959008 
L 558.26945 -37.855329 
L 555.366885 -37.756377 
L 552.46432 -37.691002 
L 549.561755 -37.674756 
L 546.65919 -37.711028 
L 543.756625 -37.792047 
L 540.85406 -37.897173 
L 537.951495 -37.994034 
L 535.04893 -38.049056 
L 532.146365 -38.045022 
L 529.2438 -37.993555 
L 526.341235 -37.931444 
L 523.43867 -37.901758 
L 520.536105 -37.931985 
L 517.63354 -38.022606 
L 514.730975 -38.15153 
L 511.82841 -38.289422 
L 508.925845 -38.414043 
L 506.02328 -38.513364 
L 503.120715 -38.577871 
L 500.21815 -38.593253 
L 497.315586 -38.543977 
L 494.413021 -38.426313 
L 491.510456 -38.259038 
L 488.607891 -38.081912 
L 485.705326 -37.942578 
L 482.802761 -37.880409 
L 479.900196 -37.914576 
L 476.997631 -38.038078 
L 474.095066 -38.21804 
L 471.192501 -38.405809 
L 468.289936 -38.559605 
L 465.387371 -38.672375 
L 462.484806 -38.785779 
L 459.582241 -38.973111 
L 456.679676 -39.29506 
L 453.777111 -39.758158 
L 450.874546 -40.311766 
L 447.971981 -40.893382 
L 445.069416 -41.491223 
L 442.166851 -42.172852 
L 439.264286 -43.050289 
L 436.361721 -44.200233 
L 433.459156 -45.593124 
L 430.556591 -47.079653 
L 427.654026 -48.446224 
L 424.751461 -49.510949 
L 421.848896 -50.208567 
L 418.946331 -50.612379 
L 416.043766 -50.870249 
L 413.141201 -51.089959 
L 410.238636 -51.262297 
L 407.336071 -51.29828 
L 404.433506 -51.159178 
L 401.530941 -50.951558 
L 398.628376 -50.870116 
L 395.725811 -51.02318 
L 392.823246 -51.318398 
L 389.920681 -51.541964 
L 387.018116 -51.559516 
L 384.115551 -51.429753 
L 381.212986 -51.317811 
L 378.310421 -51.317047 
L 375.407856 -51.378073 
L 372.505291 -51.403111 
L 369.602726 -51.366992 
L 366.700161 -51.310222 
L 363.797596 -51.225497 
L 360.895031 -51.00158 
L 357.992466 -50.518858 
L 355.089901 -49.798637 
L 352.187336 -49.032509 
L 349.284771 -48.448579 
L 346.382206 -48.148549 
L 343.479641 -48.070426 
L 340.577076 -48.08746 
L 337.674511 -48.120053 
L 334.771946 -48.154213 
L 331.869381 -48.182585 
L 328.966816 -48.159224 
L 326.064251 -48.016731 
L 323.161686 -47.711072 
L 320.259121 -47.241052 
L 317.356556 -46.637619 
L 314.453991 -45.953853 
L 311.551426 -45.269316 
L 308.648861 -44.690208 
L 305.746296 -44.325884 
L 302.843731 -44.249577 
L 299.941166 -44.471298 
L 297.038601 -44.9416 
L 294.136036 -45.576781 
L 291.233471 -46.279709 
L 288.330906 -46.943589 
L 285.428341 -47.45294 
L 282.525776 -47.705508 
L 279.623211 -47.65862 
L 276.720646 -47.371737 
L 273.818081 -47.00475 
L 270.915516 -46.757196 
L 268.012951 -46.779798 
L 265.110386 -47.112426 
L 262.207821 -47.679082 
L 259.305256 -48.332162 
L 256.402691 -48.925975 
L 253.500126 -49.403838 
L 250.597561 -49.866495 
L 247.694996 -50.563631 
L 244.792431 -51.779537 
L 241.889866 -53.68922 
L 238.987301 -56.346938 
L 236.084736 -59.898541 
L 233.182171 -64.882319 
L 230.279606 -72.304354 
L 227.377041 -83.264079 
L 224.474476 -98.247503 
L 221.571911 -116.549277 
L 218.669346 -136.365918 
L 215.766781 -155.781857 
L 212.864216 -174.202323 
L 209.961651 -193.157168 
L 207.059086 -215.442728 
L 204.156521 -242.61254 
L 201.253956 -272.341557 
L 198.351391 -297.934034 
L 195.448826 -311.186469 
L 192.546261 -307.25353 
L 189.643696 -288.078795 
L 186.741131 -261.549155 
L 183.838566 -236.774739 
L 180.936001 -218.972868 
L 178.033436 -207.510824 
L 175.130871 -197.891322 
L 172.228306 -185.578094 
L 169.325741 -168.836447 
L 166.423176 -149.151546 
L 163.520611 -129.682922 
L 160.618046 -113.217228 
L 157.715481 -100.882913 
L 154.812916 -92.055521 
L 151.910351 -85.14155 
L 149.007786 -78.62331 
L 146.105221 -71.802526 
L 143.202656 -64.933227 
L 140.300091 -58.790615 
L 137.397526 -54.037618 
L 134.494961 -50.81637 
L 131.592396 -48.759755 
L 128.689831 -47.298503 
L 125.787266 -45.98626 
L 122.884701 -44.642054 
L 119.982136 -43.29412 
L 117.079571 -42.042059 
L 114.177006 -40.958654 
L 111.274441 -40.067701 
L 108.371876 -39.361562 
L 105.469311 -38.818083 
L 102.566746 -38.408875 
L 99.664181 -38.106225 
L 96.761616 -37.888653 
L 93.859051 -37.740697 
L 90.956486 -37.64855 
L 88.053921 -37.597348 
L 85.151356 -37.572385 
L 82.248791 -37.561803 
z
" style="stroke: #f98e09"/>
    </defs>
    <g clip-path="url(#p978090a1eb)">
     <use xlink:href="#ma5008092ae" x="0" y="386.034375" style="fill: #f98e09; fill-opacity: 0.35; stroke: #f98e09"/>
    </g>
   </g>
   <g id="PolyCollection_2">
    <defs>
     <path id="mf87159cdb0" d="M 69.749716 -37.560941 
L 69.749716 -37.55625 
L 73.318469 -37.55625 
L 76.887222 -37.55625 
L 80.455974 -37.55625 
L 84.024727 -37.55625 
L 87.59348 -37.55625 
L 91.162233 -37.55625 
L 94.730986 -37.55625 
L 98.299739 -37.55625 
L 101.868492 -37.55625 
L 105.437244 -37.55625 
L 109.005997 -37.55625 
L 112.57475 -37.55625 
L 116.143503 -37.55625 
L 119.712256 -37.55625 
L 123.281009 -37.55625 
L 126.849762 -37.55625 
L 130.418514 -37.55625 
L 133.987267 -37.55625 
L 137.55602 -37.55625 
L 141.124773 -37.55625 
L 144.693526 -37.55625 
L 148.262279 -37.55625 
L 151.831032 -37.55625 
L 155.399784 -37.55625 
L 158.968537 -37.55625 
L 162.53729 -37.55625 
L 166.106043 -37.55625 
L 169.674796 -37.55625 
L 173.243549 -37.55625 
L 176.812302 -37.55625 
L 180.381054 -37.55625 
L 183.949807 -37.55625 
L 187.51856 -37.55625 
L 191.087313 -37.55625 
L 194.656066 -37.55625 
L 198.224819 -37.55625 
L 201.793572 -37.55625 
L 205.362324 -37.55625 
L 208.931077 -37.55625 
L 212.49983 -37.55625 
L 216.068583 -37.55625 
L 219.637336 -37.55625 
L 223.206089 -37.55625 
L 226.774842 -37.55625 
L 230.343594 -37.55625 
L 233.912347 -37.55625 
L 237.4811 -37.55625 
L 241.049853 -37.55625 
L 244.618606 -37.55625 
L 248.187359 -37.55625 
L 251.756112 -37.55625 
L 255.324864 -37.55625 
L 258.893617 -37.55625 
L 262.46237 -37.55625 
L 266.031123 -37.55625 
L 269.599876 -37.55625 
L 273.168629 -37.55625 
L 276.737382 -37.55625 
L 280.306134 -37.55625 
L 283.874887 -37.55625 
L 287.44364 -37.55625 
L 291.012393 -37.55625 
L 294.581146 -37.55625 
L 298.149899 -37.55625 
L 301.718651 -37.55625 
L 305.287404 -37.55625 
L 308.856157 -37.55625 
L 312.42491 -37.55625 
L 315.993663 -37.55625 
L 319.562416 -37.55625 
L 323.131169 -37.55625 
L 326.699921 -37.55625 
L 330.268674 -37.55625 
L 333.837427 -37.55625 
L 337.40618 -37.55625 
L 340.974933 -37.55625 
L 344.543686 -37.55625 
L 348.112439 -37.55625 
L 351.681191 -37.55625 
L 355.249944 -37.55625 
L 358.818697 -37.55625 
L 362.38745 -37.55625 
L 365.956203 -37.55625 
L 369.524956 -37.55625 
L 373.093709 -37.55625 
L 376.662461 -37.55625 
L 380.231214 -37.55625 
L 383.799967 -37.55625 
L 387.36872 -37.55625 
L 390.937473 -37.55625 
L 394.506226 -37.55625 
L 398.074979 -37.55625 
L 401.643731 -37.55625 
L 405.212484 -37.55625 
L 408.781237 -37.55625 
L 412.34999 -37.55625 
L 415.918743 -37.55625 
L 419.487496 -37.55625 
L 423.056249 -37.55625 
L 426.625001 -37.55625 
L 430.193754 -37.55625 
L 433.762507 -37.55625 
L 437.33126 -37.55625 
L 440.900013 -37.55625 
L 444.468766 -37.55625 
L 448.037519 -37.55625 
L 451.606271 -37.55625 
L 455.175024 -37.55625 
L 458.743777 -37.55625 
L 462.31253 -37.55625 
L 465.881283 -37.55625 
L 469.450036 -37.55625 
L 473.018789 -37.55625 
L 476.587541 -37.55625 
L 480.156294 -37.55625 
L 483.725047 -37.55625 
L 487.2938 -37.55625 
L 490.862553 -37.55625 
L 494.431306 -37.55625 
L 498.000059 -37.55625 
L 501.568811 -37.55625 
L 505.137564 -37.55625 
L 508.706317 -37.55625 
L 512.27507 -37.55625 
L 515.843823 -37.55625 
L 519.412576 -37.55625 
L 522.981329 -37.55625 
L 526.550081 -37.55625 
L 530.118834 -37.55625 
L 533.687587 -37.55625 
L 537.25634 -37.55625 
L 540.825093 -37.55625 
L 544.393846 -37.55625 
L 547.962599 -37.55625 
L 551.531351 -37.55625 
L 555.100104 -37.55625 
L 558.668857 -37.55625 
L 562.23761 -37.55625 
L 565.806363 -37.55625 
L 569.375116 -37.55625 
L 572.943868 -37.55625 
L 576.512621 -37.55625 
L 580.081374 -37.55625 
L 583.650127 -37.55625 
L 587.21888 -37.55625 
L 590.787633 -37.55625 
L 594.356386 -37.55625 
L 597.925138 -37.55625 
L 601.493891 -37.55625 
L 605.062644 -37.55625 
L 608.631397 -37.55625 
L 612.20015 -37.55625 
L 615.768903 -37.55625 
L 619.337656 -37.55625 
L 622.906408 -37.55625 
L 626.475161 -37.55625 
L 630.043914 -37.55625 
L 633.612667 -37.55625 
L 637.18142 -37.55625 
L 640.750173 -37.55625 
L 644.318926 -37.55625 
L 647.887678 -37.55625 
L 651.456431 -37.55625 
L 655.025184 -37.55625 
L 658.593937 -37.55625 
L 662.16269 -37.55625 
L 665.731443 -37.55625 
L 669.300196 -37.55625 
L 672.868948 -37.55625 
L 676.437701 -37.55625 
L 680.006454 -37.55625 
L 683.575207 -37.55625 
L 687.14396 -37.55625 
L 690.712713 -37.55625 
L 694.281466 -37.55625 
L 697.850218 -37.55625 
L 701.418971 -37.55625 
L 704.987724 -37.55625 
L 708.556477 -37.55625 
L 712.12523 -37.55625 
L 715.693983 -37.55625 
L 719.262736 -37.55625 
L 722.831488 -37.55625 
L 726.400241 -37.55625 
L 729.968994 -37.55625 
L 733.537747 -37.55625 
L 737.1065 -37.55625 
L 740.675253 -37.55625 
L 744.244006 -37.55625 
L 747.812758 -37.55625 
L 751.381511 -37.55625 
L 754.950264 -37.55625 
L 758.519017 -37.55625 
L 762.08777 -37.55625 
L 765.656523 -37.55625 
L 769.225276 -37.55625 
L 772.794028 -37.55625 
L 776.362781 -37.55625 
L 779.931534 -37.55625 
L 779.931534 -37.56111 
L 779.931534 -37.56111 
L 776.362781 -37.570961 
L 772.794028 -37.594777 
L 769.225276 -37.64376 
L 765.656523 -37.729205 
L 762.08777 -37.854894 
L 758.519017 -38.008862 
L 754.950264 -38.161233 
L 751.381511 -38.27253 
L 747.812758 -38.309727 
L 744.244006 -38.261363 
L 740.675253 -38.143316 
L 737.1065 -37.992376 
L 733.537747 -37.851602 
L 729.968994 -37.755705 
L 726.400241 -37.722953 
L 722.831488 -37.753607 
L 719.262736 -37.831174 
L 715.693983 -37.926245 
L 712.12523 -38.006733 
L 708.556477 -38.053379 
L 704.987724 -38.069085 
L 701.418971 -38.070939 
L 697.850218 -38.07003 
L 694.281466 -38.05886 
L 690.712713 -38.019477 
L 687.14396 -37.943316 
L 683.575207 -37.842039 
L 680.006454 -37.740074 
L 676.437701 -37.658523 
L 672.868948 -37.605311 
L 669.300196 -37.576574 
L 665.731443 -37.563816 
L 662.16269 -37.55997 
L 658.593937 -37.562107 
L 655.025184 -37.572166 
L 651.456431 -37.597216 
L 647.887678 -37.648919 
L 644.318926 -37.74083 
L 640.750173 -37.883465 
L 637.18142 -38.079331 
L 633.612667 -38.319556 
L 630.043914 -38.580344 
L 626.475161 -38.818389 
L 622.906408 -38.973167 
L 619.337656 -38.987534 
L 615.768903 -38.841929 
L 612.20015 -38.575557 
L 608.631397 -38.27191 
L 605.062644 -38.01745 
L 601.493891 -37.864854 
L 597.925138 -37.821388 
L 594.356386 -37.858082 
L 590.787633 -37.926492 
L 587.21888 -37.977493 
L 583.650127 -37.980784 
L 580.081374 -37.937987 
L 576.512621 -37.879479 
L 572.943868 -37.844391 
L 569.375116 -37.855738 
L 565.806363 -37.906048 
L 562.23761 -37.961844 
L 558.668857 -37.984124 
L 555.100104 -37.951842 
L 551.531351 -37.87259 
L 547.962599 -37.774096 
L 544.393846 -37.685264 
L 540.825093 -37.621945 
L 537.25634 -37.585098 
L 533.687587 -37.567585 
L 530.118834 -37.561851 
L 526.550081 -37.564464 
L 522.981329 -37.57799 
L 519.412576 -37.611587 
L 515.843823 -37.679505 
L 512.27507 -37.795007 
L 508.706317 -37.959603 
L 505.137564 -38.154118 
L 501.568811 -38.342707 
L 498.000059 -38.494338 
L 494.431306 -38.609619 
L 490.862553 -38.730602 
L 487.2938 -38.922759 
L 483.725047 -39.242264 
L 480.156294 -39.71084 
L 476.587541 -40.306684 
L 473.018789 -40.967958 
L 469.450036 -41.611599 
L 465.881283 -42.170997 
L 462.31253 -42.630262 
L 458.743777 -43.017105 
L 455.175024 -43.356524 
L 451.606271 -43.642873 
L 448.037519 -43.868904 
L 444.468766 -44.068625 
L 440.900013 -44.306914 
L 437.33126 -44.626236 
L 433.762507 -45.02535 
L 430.193754 -45.500299 
L 426.625001 -46.094396 
L 423.056249 -46.89781 
L 419.487496 -47.997719 
L 415.918743 -49.418407 
L 412.34999 -51.086788 
L 408.781237 -52.846069 
L 405.212484 -54.513368 
L 401.643731 -55.931542 
L 398.074979 -56.96688 
L 394.506226 -57.485813 
L 390.937473 -57.393832 
L 387.36872 -56.733201 
L 383.799967 -55.71811 
L 380.231214 -54.623238 
L 376.662461 -53.607312 
L 373.093709 -52.633217 
L 369.524956 -51.549636 
L 365.956203 -50.256863 
L 362.38745 -48.829425 
L 358.818697 -47.510089 
L 355.249944 -46.571899 
L 351.681191 -46.136554 
L 348.112439 -46.084422 
L 344.543686 -46.130765 
L 340.974933 -46.008987 
L 337.40618 -45.621864 
L 333.837427 -45.06702 
L 330.268674 -44.550222 
L 326.699921 -44.264901 
L 323.131169 -44.307111 
L 319.562416 -44.652016 
L 315.993663 -45.182614 
L 312.42491 -45.744721 
L 308.856157 -46.199383 
L 305.287404 -46.45359 
L 301.718651 -46.47082 
L 298.149899 -46.277797 
L 294.581146 -45.970755 
L 291.012393 -45.696503 
L 287.44364 -45.58794 
L 283.874887 -45.683093 
L 280.306134 -45.893832 
L 276.737382 -46.059921 
L 273.168629 -46.051412 
L 269.599876 -45.844004 
L 266.031123 -45.522865 
L 262.46237 -45.234198 
L 258.893617 -45.141835 
L 255.324864 -45.429607 
L 251.756112 -46.332668 
L 248.187359 -48.135372 
L 244.618606 -51.101425 
L 241.049853 -55.397657 
L 237.4811 -61.124825 
L 233.912347 -68.472258 
L 230.343594 -77.83396 
L 226.774842 -89.680203 
L 223.206089 -104.189328 
L 219.637336 -120.939659 
L 216.068583 -139.022363 
L 212.49983 -157.610718 
L 208.931077 -176.506334 
L 205.362324 -195.970608 
L 201.793572 -215.683976 
L 198.224819 -233.725909 
L 194.656066 -246.909052 
L 191.087313 -252.693472 
L 187.51856 -251.078722 
L 183.949807 -244.507186 
L 180.381054 -235.716778 
L 176.812302 -225.617242 
L 173.243549 -213.151724 
L 169.674796 -196.988895 
L 166.106043 -177.242327 
L 162.53729 -155.759487 
L 158.968537 -135.041872 
L 155.399784 -116.90781 
L 151.831032 -101.900358 
L 148.262279 -89.61948 
L 144.693526 -79.437906 
L 141.124773 -70.960622 
L 137.55602 -64.022944 
L 133.987267 -58.472808 
L 130.418514 -54.050086 
L 126.849762 -50.442555 
L 123.281009 -47.402359 
L 119.712256 -44.806408 
L 116.143503 -42.638629 
L 112.57475 -40.930537 
L 109.005997 -39.69892 
L 105.437244 -38.905153 
L 101.868492 -38.449912 
L 98.299739 -38.20321 
L 94.730986 -38.05037 
L 91.162233 -37.924394 
L 87.59348 -37.807276 
L 84.024727 -37.707521 
L 80.455974 -37.635528 
L 76.887222 -37.592136 
L 73.318469 -37.570239 
L 69.749716 -37.560941 
z
" style="stroke: #bc3754"/>
    </defs>
    <g clip-path="url(#p978090a1eb)">
     <use xlink:href="#mf87159cdb0" x="0" y="386.034375" style="fill: #bc3754; fill-opacity: 0.35; stroke: #bc3754"/>
    </g>
   </g>
   <g id="PolyCollection_3">
    <defs>
     <path id="m8a0ef8cf2c" d="M 76.291598 -37.563268 
L 76.291598 -37.55625 
L 79.128015 -37.55625 
L 81.964432 -37.55625 
L 84.800849 -37.55625 
L 87.637266 -37.55625 
L 90.473683 -37.55625 
L 93.3101 -37.55625 
L 96.146516 -37.55625 
L 98.982933 -37.55625 
L 101.81935 -37.55625 
L 104.655767 -37.55625 
L 107.492184 -37.55625 
L 110.328601 -37.55625 
L 113.165018 -37.55625 
L 116.001435 -37.55625 
L 118.837852 -37.55625 
L 121.674269 -37.55625 
L 124.510686 -37.55625 
L 127.347103 -37.55625 
L 130.18352 -37.55625 
L 133.019937 -37.55625 
L 135.856354 -37.55625 
L 138.692771 -37.55625 
L 141.529188 -37.55625 
L 144.365605 -37.55625 
L 147.202022 -37.55625 
L 150.038439 -37.55625 
L 152.874856 -37.55625 
L 155.711273 -37.55625 
L 158.547689 -37.55625 
L 161.384106 -37.55625 
L 164.220523 -37.55625 
L 167.05694 -37.55625 
L 169.893357 -37.55625 
L 172.729774 -37.55625 
L 175.566191 -37.55625 
L 178.402608 -37.55625 
L 181.239025 -37.55625 
L 184.075442 -37.55625 
L 186.911859 -37.55625 
L 189.748276 -37.55625 
L 192.584693 -37.55625 
L 195.42111 -37.55625 
L 198.257527 -37.55625 
L 201.093944 -37.55625 
L 203.930361 -37.55625 
L 206.766778 -37.55625 
L 209.603195 -37.55625 
L 212.439612 -37.55625 
L 215.276029 -37.55625 
L 218.112446 -37.55625 
L 220.948863 -37.55625 
L 223.785279 -37.55625 
L 226.621696 -37.55625 
L 229.458113 -37.55625 
L 232.29453 -37.55625 
L 235.130947 -37.55625 
L 237.967364 -37.55625 
L 240.803781 -37.55625 
L 243.640198 -37.55625 
L 246.476615 -37.55625 
L 249.313032 -37.55625 
L 252.149449 -37.55625 
L 254.985866 -37.55625 
L 257.822283 -37.55625 
L 260.6587 -37.55625 
L 263.495117 -37.55625 
L 266.331534 -37.55625 
L 269.167951 -37.55625 
L 272.004368 -37.55625 
L 274.840785 -37.55625 
L 277.677202 -37.55625 
L 280.513619 -37.55625 
L 283.350036 -37.55625 
L 286.186452 -37.55625 
L 289.022869 -37.55625 
L 291.859286 -37.55625 
L 294.695703 -37.55625 
L 297.53212 -37.55625 
L 300.368537 -37.55625 
L 303.204954 -37.55625 
L 306.041371 -37.55625 
L 308.877788 -37.55625 
L 311.714205 -37.55625 
L 314.550622 -37.55625 
L 317.387039 -37.55625 
L 320.223456 -37.55625 
L 323.059873 -37.55625 
L 325.89629 -37.55625 
L 328.732707 -37.55625 
L 331.569124 -37.55625 
L 334.405541 -37.55625 
L 337.241958 -37.55625 
L 340.078375 -37.55625 
L 342.914792 -37.55625 
L 345.751209 -37.55625 
L 348.587625 -37.55625 
L 351.424042 -37.55625 
L 354.260459 -37.55625 
L 357.096876 -37.55625 
L 359.933293 -37.55625 
L 362.76971 -37.55625 
L 365.606127 -37.55625 
L 368.442544 -37.55625 
L 371.278961 -37.55625 
L 374.115378 -37.55625 
L 376.951795 -37.55625 
L 379.788212 -37.55625 
L 382.624629 -37.55625 
L 385.461046 -37.55625 
L 388.297463 -37.55625 
L 391.13388 -37.55625 
L 393.970297 -37.55625 
L 396.806714 -37.55625 
L 399.643131 -37.55625 
L 402.479548 -37.55625 
L 405.315965 -37.55625 
L 408.152382 -37.55625 
L 410.988799 -37.55625 
L 413.825215 -37.55625 
L 416.661632 -37.55625 
L 419.498049 -37.55625 
L 422.334466 -37.55625 
L 425.170883 -37.55625 
L 428.0073 -37.55625 
L 430.843717 -37.55625 
L 433.680134 -37.55625 
L 436.516551 -37.55625 
L 439.352968 -37.55625 
L 442.189385 -37.55625 
L 445.025802 -37.55625 
L 447.862219 -37.55625 
L 450.698636 -37.55625 
L 453.535053 -37.55625 
L 456.37147 -37.55625 
L 459.207887 -37.55625 
L 462.044304 -37.55625 
L 464.880721 -37.55625 
L 467.717138 -37.55625 
L 470.553555 -37.55625 
L 473.389972 -37.55625 
L 476.226388 -37.55625 
L 479.062805 -37.55625 
L 481.899222 -37.55625 
L 484.735639 -37.55625 
L 487.572056 -37.55625 
L 490.408473 -37.55625 
L 493.24489 -37.55625 
L 496.081307 -37.55625 
L 498.917724 -37.55625 
L 501.754141 -37.55625 
L 504.590558 -37.55625 
L 507.426975 -37.55625 
L 510.263392 -37.55625 
L 513.099809 -37.55625 
L 515.936226 -37.55625 
L 518.772643 -37.55625 
L 521.60906 -37.55625 
L 524.445477 -37.55625 
L 527.281894 -37.55625 
L 530.118311 -37.55625 
L 532.954728 -37.55625 
L 535.791145 -37.55625 
L 538.627561 -37.55625 
L 541.463978 -37.55625 
L 544.300395 -37.55625 
L 547.136812 -37.55625 
L 549.973229 -37.55625 
L 552.809646 -37.55625 
L 555.646063 -37.55625 
L 558.48248 -37.55625 
L 561.318897 -37.55625 
L 564.155314 -37.55625 
L 566.991731 -37.55625 
L 569.828148 -37.55625 
L 572.664565 -37.55625 
L 575.500982 -37.55625 
L 578.337399 -37.55625 
L 581.173816 -37.55625 
L 584.010233 -37.55625 
L 586.84665 -37.55625 
L 589.683067 -37.55625 
L 592.519484 -37.55625 
L 595.355901 -37.55625 
L 598.192318 -37.55625 
L 601.028735 -37.55625 
L 603.865151 -37.55625 
L 606.701568 -37.55625 
L 609.537985 -37.55625 
L 612.374402 -37.55625 
L 615.210819 -37.55625 
L 618.047236 -37.55625 
L 620.883653 -37.55625 
L 623.72007 -37.55625 
L 626.556487 -37.55625 
L 629.392904 -37.55625 
L 632.229321 -37.55625 
L 635.065738 -37.55625 
L 637.902155 -37.55625 
L 640.738572 -37.55625 
L 640.738572 -37.562409 
L 640.738572 -37.562409 
L 637.902155 -37.575429 
L 635.065738 -37.606934 
L 632.229321 -37.670012 
L 629.392904 -37.773486 
L 626.556487 -37.910465 
L 623.72007 -38.053236 
L 620.883653 -38.165569 
L 618.047236 -38.227417 
L 615.210819 -38.24813 
L 612.374402 -38.250905 
L 609.537985 -38.243719 
L 606.701568 -38.211041 
L 603.865151 -38.137473 
L 601.028735 -38.036397 
L 598.192318 -37.950981 
L 595.355901 -37.925125 
L 592.519484 -37.969854 
L 589.683067 -38.051684 
L 586.84665 -38.111722 
L 584.010233 -38.103093 
L 581.173816 -38.020444 
L 578.337399 -37.900695 
L 575.500982 -37.798197 
L 572.664565 -37.756326 
L 569.828148 -37.791723 
L 566.991731 -37.890246 
L 564.155314 -38.010051 
L 561.318897 -38.095487 
L 558.48248 -38.103514 
L 555.646063 -38.028031 
L 552.809646 -37.901297 
L 549.973229 -37.770289 
L 547.136812 -37.668854 
L 544.300395 -37.606491 
L 541.463978 -37.575261 
L 538.627561 -37.562351 
L 535.791145 -37.55791 
L 532.954728 -37.556633 
L 530.118311 -37.556325 
L 527.281894 -37.556266 
L 524.445477 -37.556275 
L 521.60906 -37.556387 
L 518.772643 -37.556949 
L 515.936226 -37.559284 
L 513.099809 -37.567458 
L 510.263392 -37.591515 
L 507.426975 -37.650923 
L 504.590558 -37.773757 
L 501.754141 -37.986068 
L 498.917724 -38.292988 
L 496.081307 -38.666194 
L 493.24489 -39.054102 
L 490.408473 -39.408773 
L 487.572056 -39.699935 
L 484.735639 -39.900567 
L 481.899222 -39.971028 
L 479.062805 -39.879293 
L 476.226388 -39.648756 
L 473.389972 -39.378644 
L 470.553555 -39.197859 
L 467.717138 -39.178588 
L 464.880721 -39.282943 
L 462.044304 -39.394251 
L 459.207887 -39.409848 
L 456.37147 -39.314381 
L 453.535053 -39.173364 
L 450.698636 -39.066809 
L 447.862219 -39.033946 
L 445.025802 -39.070254 
L 442.189385 -39.155503 
L 439.352968 -39.274185 
L 436.516551 -39.42248 
L 433.680134 -39.618004 
L 430.843717 -39.910061 
L 428.0073 -40.368813 
L 425.170883 -41.050565 
L 422.334466 -41.965895 
L 419.498049 -43.071049 
L 416.661632 -44.272527 
L 413.825215 -45.429758 
L 410.988799 -46.371454 
L 408.152382 -46.956519 
L 405.315965 -47.163953 
L 402.479548 -47.129685 
L 399.643131 -47.0669 
L 396.806714 -47.123586 
L 393.970297 -47.306564 
L 391.13388 -47.52685 
L 388.297463 -47.691001 
L 385.461046 -47.741281 
L 382.624629 -47.640615 
L 379.788212 -47.36982 
L 376.951795 -46.966117 
L 374.115378 -46.545595 
L 371.278961 -46.246702 
L 368.442544 -46.131362 
L 365.606127 -46.15404 
L 362.76971 -46.241807 
L 359.933293 -46.39315 
L 357.096876 -46.673319 
L 354.260459 -47.101027 
L 351.424042 -47.546699 
L 348.587625 -47.759742 
L 345.751209 -47.525095 
L 342.914792 -46.834178 
L 340.078375 -45.934467 
L 337.241958 -45.206099 
L 334.405541 -44.943325 
L 331.569124 -45.196147 
L 328.732707 -45.783694 
L 325.89629 -46.453439 
L 323.059873 -47.046022 
L 320.223456 -47.539898 
L 317.387039 -47.979012 
L 314.550622 -48.393009 
L 311.714205 -48.788408 
L 308.877788 -49.17698 
L 306.041371 -49.569917 
L 303.204954 -49.938684 
L 300.368537 -50.203386 
L 297.53212 -50.275487 
L 294.695703 -50.119011 
L 291.859286 -49.78513 
L 289.022869 -49.402462 
L 286.186452 -49.120246 
L 283.350036 -49.015416 
L 280.513619 -49.014126 
L 277.677202 -48.907691 
L 274.840785 -48.498416 
L 272.004368 -47.798246 
L 269.167951 -47.119242 
L 266.331534 -46.935348 
L 263.495117 -47.560349 
L 260.6587 -48.870742 
L 257.822283 -50.342274 
L 254.985866 -51.458654 
L 252.149449 -52.206989 
L 249.313032 -53.227106 
L 246.476615 -55.425147 
L 243.640198 -59.292779 
L 240.803781 -64.4398 
L 237.967364 -69.781314 
L 235.130947 -74.411212 
L 232.29453 -78.614714 
L 229.458113 -84.222426 
L 226.621696 -93.93427 
L 223.785279 -109.908549 
L 220.948863 -132.221602 
L 218.112446 -157.961846 
L 215.276029 -181.938086 
L 212.439612 -199.394954 
L 209.603195 -209.320939 
L 206.766778 -215.668024 
L 203.930361 -224.969236 
L 201.093944 -241.578514 
L 198.257527 -263.688328 
L 195.42111 -283.217933 
L 192.584693 -290.481197 
L 189.748276 -280.87284 
L 186.911859 -258.435184 
L 184.075442 -233.256098 
L 181.239025 -214.881593 
L 178.402608 -206.936081 
L 175.566191 -206.268118 
L 172.729774 -206.041726 
L 169.893357 -200.023722 
L 167.05694 -185.556487 
L 164.220523 -164.110079 
L 161.384106 -139.786583 
L 158.547689 -117.019332 
L 155.711273 -98.696776 
L 152.874856 -85.400443 
L 150.038439 -75.86499 
L 147.202022 -68.241987 
L 144.365605 -61.34042 
L 141.529188 -55.076683 
L 138.692771 -50.016184 
L 135.856354 -46.588101 
L 133.019937 -44.655207 
L 130.18352 -43.641035 
L 127.347103 -42.930892 
L 124.510686 -42.171054 
L 121.674269 -41.307057 
L 118.837852 -40.443424 
L 116.001435 -39.695473 
L 113.165018 -39.130763 
L 110.328601 -38.776462 
L 107.492184 -38.625398 
L 104.655767 -38.622881 
L 101.81935 -38.668732 
L 98.982933 -38.65778 
L 96.146516 -38.534297 
L 93.3101 -38.315299 
L 90.473683 -38.065717 
L 87.637266 -37.850593 
L 84.800849 -37.702254 
L 81.964432 -37.618317 
L 79.128015 -37.578828 
L 76.291598 -37.563268 
z
" style="stroke: #57106e"/>
    </defs>
    <g clip-path="url(#p978090a1eb)">
     <use xlink:href="#m8a0ef8cf2c" x="0" y="386.034375" style="fill: #57106e; fill-opacity: 0.35; stroke: #57106e"/>
    </g>
   </g>
   <g id="matplotlib.axis_1">
    <g id="xtick_1">
     <g id="line2d_1">
      <defs>
       <path id="m9ddb2f5e59" d="M 0 0 
L 0 3.5 
" style="stroke: #000000; stroke-width: 0.8"/>
      </defs>
      <g>
       <use xlink:href="#m9ddb2f5e59" x="89.908181" y="348.478125" style="stroke: #000000; stroke-width: 0.8"/>
      </g>
     </g>
     <g id="text_1">
      <!-- 0.5 -->
      <g transform="translate(81.956618 363.076562)scale(0.1 -0.1)">
       <defs>
        <path id="DejaVuSans-30" d="M 2034 4250 
Q 1547 4250 1301 3770 
Q 1056 3291 1056 2328 
Q 1056 1369 1301 889 
Q 1547 409 2034 409 
Q 2525 409 2770 889 
Q 3016 1369 3016 2328 
Q 3016 3291 2770 3770 
Q 2525 4250 2034 4250 
z
M 2034 4750 
Q 2819 4750 3233 4129 
Q 3647 3509 3647 2328 
Q 3647 1150 3233 529 
Q 2819 -91 2034 -91 
Q 1250 -91 836 529 
Q 422 1150 422 2328 
Q 422 3509 836 4129 
Q 1250 4750 2034 4750 
z
" transform="scale(0.015625)"/>
        <path id="DejaVuSans-2e" d="M 684 794 
L 1344 794 
L 1344 0 
L 684 0 
L 684 794 
z
" transform="scale(0.015625)"/>
        <path id="DejaVuSans-35" d="M 691 4666 
L 3169 4666 
L 3169 4134 
L 1269 4134 
L 1269 2991 
Q 1406 3038 1543 3061 
Q 1681 3084 1819 3084 
Q 2600 3084 3056 2656 
Q 3513 2228 3513 1497 
Q 3513 744 3044 326 
Q 2575 -91 1722 -91 
Q 1428 -91 1123 -41 
Q 819 9 494 109 
L 494 744 
Q 775 591 1075 516 
Q 1375 441 1709 441 
Q 2250 441 2565 725 
Q 2881 1009 2881 1497 
Q 2881 1984 2565 2268 
Q 2250 2553 1709 2553 
Q 1456 2553 1204 2497 
Q 953 2441 691 2322 
L 691 4666 
z
" transform="scale(0.015625)"/>
       </defs>
       <use xlink:href="#DejaVuSans-30"/>
       <use xlink:href="#DejaVuSans-2e" x="63.623047"/>
       <use xlink:href="#DejaVuSans-35" x="95.410156"/>
      </g>
     </g>
    </g>
    <g id="xtick_2">
     <g id="line2d_2">
      <g>
       <use xlink:href="#m9ddb2f5e59" x="245.653174" y="348.478125" style="stroke: #000000; stroke-width: 0.8"/>
      </g>
     </g>
     <g id="text_2">
      <!-- 1.0 -->
      <g transform="translate(237.701611 363.076562)scale(0.1 -0.1)">
       <defs>
        <path id="DejaVuSans-31" d="M 794 531 
L 1825 531 
L 1825 4091 
L 703 3866 
L 703 4441 
L 1819 4666 
L 2450 4666 
L 2450 531 
L 3481 531 
L 3481 0 
L 794 0 
L 794 531 
z
" transform="scale(0.015625)"/>
       </defs>
       <use xlink:href="#DejaVuSans-31"/>
       <use xlink:href="#DejaVuSans-2e" x="63.623047"/>
       <use xlink:href="#DejaVuSans-30" x="95.410156"/>
      </g>
     </g>
    </g>
    <g id="xtick_3">
     <g id="line2d_3">
      <g>
       <use xlink:href="#m9ddb2f5e59" x="401.398167" y="348.478125" style="stroke: #000000; stroke-width: 0.8"/>
      </g>
     </g>
     <g id="text_3">
      <!-- 1.5 -->
      <g transform="translate(393.446605 363.076562)scale(0.1 -0.1)">
       <use xlink:href="#DejaVuSans-31"/>
       <use xlink:href="#DejaVuSans-2e" x="63.623047"/>
       <use xlink:href="#DejaVuSans-35" x="95.410156"/>
      </g>
     </g>
    </g>
    <g id="xtick_4">
     <g id="line2d_4">
      <g>
       <use xlink:href="#m9ddb2f5e59" x="557.14316" y="348.478125" style="stroke: #000000; stroke-width: 0.8"/>
      </g>
     </g>
     <g id="text_4">
      <!-- 2.0 -->
      <g transform="translate(549.191598 363.076562)scale(0.1 -0.1)">
       <defs>
        <path id="DejaVuSans-32" d="M 1228 531 
L 3431 531 
L 3431 0 
L 469 0 
L 469 531 
Q 828 903 1448 1529 
Q 2069 2156 2228 2338 
Q 2531 2678 2651 2914 
Q 2772 3150 2772 3378 
Q 2772 3750 2511 3984 
Q 2250 4219 1831 4219 
Q 1534 4219 1204 4116 
Q 875 4013 500 3803 
L 500 4441 
Q 881 4594 1212 4672 
Q 1544 4750 1819 4750 
Q 2544 4750 2975 4387 
Q 3406 4025 3406 3419 
Q 3406 3131 3298 2873 
Q 3191 2616 2906 2266 
Q 2828 2175 2409 1742 
Q 1991 1309 1228 531 
z
" transform="scale(0.015625)"/>
       </defs>
       <use xlink:href="#DejaVuSans-32"/>
       <use xlink:href="#DejaVuSans-2e" x="63.623047"/>
       <use xlink:href="#DejaVuSans-30" x="95.410156"/>
      </g>
     </g>
    </g>
    <g id="xtick_5">
     <g id="line2d_5">
      <g>
       <use xlink:href="#m9ddb2f5e59" x="712.888153" y="348.478125" style="stroke: #000000; stroke-width: 0.8"/>
      </g>
     </g>
     <g id="text_5">
      <!-- 2.5 -->
      <g transform="translate(704.936591 363.076562)scale(0.1 -0.1)">
       <use xlink:href="#DejaVuSans-32"/>
       <use xlink:href="#DejaVuSans-2e" x="63.623047"/>
       <use xlink:href="#DejaVuSans-35" x="95.410156"/>
      </g>
     </g>
    </g>
    <g id="text_6">
     <!-- Meters [m] -->
     <g transform="translate(397.392188 376.754687)scale(0.1 -0.1)">
      <defs>
       <path id="DejaVuSans-4d" d="M 628 4666 
L 1569 4666 
L 2759 1491 
L 3956 4666 
L 4897 4666 
L 4897 0 
L 4281 0 
L 4281 4097 
L 3078 897 
L 2444 897 
L 1241 4097 
L 1241 0 
L 628 0 
L 628 4666 
z
" transform="scale(0.015625)"/>
       <path id="DejaVuSans-65" d="M 3597 1894 
L 3597 1613 
L 953 1613 
Q 991 1019 1311 708 
Q 1631 397 2203 397 
Q 2534 397 2845 478 
Q 3156 559 3463 722 
L 3463 178 
Q 3153 47 2828 -22 
Q 2503 -91 2169 -91 
Q 1331 -91 842 396 
Q 353 884 353 1716 
Q 353 2575 817 3079 
Q 1281 3584 2069 3584 
Q 2775 3584 3186 3129 
Q 3597 2675 3597 1894 
z
M 3022 2063 
Q 3016 2534 2758 2815 
Q 2500 3097 2075 3097 
Q 1594 3097 1305 2825 
Q 1016 2553 972 2059 
L 3022 2063 
z
" transform="scale(0.015625)"/>
       <path id="DejaVuSans-74" d="M 1172 4494 
L 1172 3500 
L 2356 3500 
L 2356 3053 
L 1172 3053 
L 1172 1153 
Q 1172 725 1289 603 
Q 1406 481 1766 481 
L 2356 481 
L 2356 0 
L 1766 0 
Q 1100 0 847 248 
Q 594 497 594 1153 
L 594 3053 
L 172 3053 
L 172 3500 
L 594 3500 
L 594 4494 
L 1172 4494 
z
" transform="scale(0.015625)"/>
       <path id="DejaVuSans-72" d="M 2631 2963 
Q 2534 3019 2420 3045 
Q 2306 3072 2169 3072 
Q 1681 3072 1420 2755 
Q 1159 2438 1159 1844 
L 1159 0 
L 581 0 
L 581 3500 
L 1159 3500 
L 1159 2956 
Q 1341 3275 1631 3429 
Q 1922 3584 2338 3584 
Q 2397 3584 2469 3576 
Q 2541 3569 2628 3553 
L 2631 2963 
z
" transform="scale(0.015625)"/>
       <path id="DejaVuSans-73" d="M 2834 3397 
L 2834 2853 
Q 2591 2978 2328 3040 
Q 2066 3103 1784 3103 
Q 1356 3103 1142 2972 
Q 928 2841 928 2578 
Q 928 2378 1081 2264 
Q 1234 2150 1697 2047 
L 1894 2003 
Q 2506 1872 2764 1633 
Q 3022 1394 3022 966 
Q 3022 478 2636 193 
Q 2250 -91 1575 -91 
Q 1294 -91 989 -36 
Q 684 19 347 128 
L 347 722 
Q 666 556 975 473 
Q 1284 391 1588 391 
Q 1994 391 2212 530 
Q 2431 669 2431 922 
Q 2431 1156 2273 1281 
Q 2116 1406 1581 1522 
L 1381 1569 
Q 847 1681 609 1914 
Q 372 2147 372 2553 
Q 372 3047 722 3315 
Q 1072 3584 1716 3584 
Q 2034 3584 2315 3537 
Q 2597 3491 2834 3397 
z
" transform="scale(0.015625)"/>
       <path id="DejaVuSans-20" transform="scale(0.015625)"/>
       <path id="DejaVuSans-5b" d="M 550 4863 
L 1875 4863 
L 1875 4416 
L 1125 4416 
L 1125 -397 
L 1875 -397 
L 1875 -844 
L 550 -844 
L 550 4863 
z
" transform="scale(0.015625)"/>
       <path id="DejaVuSans-6d" d="M 3328 2828 
Q 3544 3216 3844 3400 
Q 4144 3584 4550 3584 
Q 5097 3584 5394 3201 
Q 5691 2819 5691 2113 
L 5691 0 
L 5113 0 
L 5113 2094 
Q 5113 2597 4934 2840 
Q 4756 3084 4391 3084 
Q 3944 3084 3684 2787 
Q 3425 2491 3425 1978 
L 3425 0 
L 2847 0 
L 2847 2094 
Q 2847 2600 2669 2842 
Q 2491 3084 2119 3084 
Q 1678 3084 1418 2786 
Q 1159 2488 1159 1978 
L 1159 0 
L 581 0 
L 581 3500 
L 1159 3500 
L 1159 2956 
Q 1356 3278 1631 3431 
Q 1906 3584 2284 3584 
Q 2666 3584 2933 3390 
Q 3200 3197 3328 2828 
z
" transform="scale(0.015625)"/>
       <path id="DejaVuSans-5d" d="M 1947 4863 
L 1947 -844 
L 622 -844 
L 622 -397 
L 1369 -397 
L 1369 4416 
L 622 4416 
L 622 4863 
L 1947 4863 
z
" transform="scale(0.015625)"/>
      </defs>
      <use xlink:href="#DejaVuSans-4d"/>
      <use xlink:href="#DejaVuSans-65" x="86.279297"/>
      <use xlink:href="#DejaVuSans-74" x="147.802734"/>
      <use xlink:href="#DejaVuSans-65" x="187.011719"/>
      <use xlink:href="#DejaVuSans-72" x="248.535156"/>
      <use xlink:href="#DejaVuSans-73" x="289.648438"/>
      <use xlink:href="#DejaVuSans-20" x="341.748047"/>
      <use xlink:href="#DejaVuSans-5b" x="373.535156"/>
      <use xlink:href="#DejaVuSans-6d" x="412.548828"/>
      <use xlink:href="#DejaVuSans-5d" x="509.960938"/>
     </g>
    </g>
   </g>
   <g id="matplotlib.axis_2">
    <g id="ytick_1">
     <g id="line2d_6">
      <defs>
       <path id="m734a870ef5" d="M 0 0 
L -3.5 0 
" style="stroke: #000000; stroke-width: 0.8"/>
      </defs>
      <g>
       <use xlink:href="#m734a870ef5" x="34.240625" y="348.478125" style="stroke: #000000; stroke-width: 0.8"/>
      </g>
     </g>
     <g id="text_7">
      <!-- 0 -->
      <g transform="translate(20.878125 352.277344)scale(0.1 -0.1)">
       <use xlink:href="#DejaVuSans-30"/>
      </g>
     </g>
    </g>
    <g id="ytick_2">
     <g id="line2d_7">
      <g>
       <use xlink:href="#m734a870ef5" x="34.240625" y="300.461811" style="stroke: #000000; stroke-width: 0.8"/>
      </g>
     </g>
     <g id="text_8">
      <!-- 1 -->
      <g transform="translate(20.878125 304.26103)scale(0.1 -0.1)">
       <use xlink:href="#DejaVuSans-31"/>
      </g>
     </g>
    </g>
    <g id="ytick_3">
     <g id="line2d_8">
      <g>
       <use xlink:href="#m734a870ef5" x="34.240625" y="252.445497" style="stroke: #000000; stroke-width: 0.8"/>
      </g>
     </g>
     <g id="text_9">
      <!-- 2 -->
      <g transform="translate(20.878125 256.244715)scale(0.1 -0.1)">
       <use xlink:href="#DejaVuSans-32"/>
      </g>
     </g>
    </g>
    <g id="ytick_4">
     <g id="line2d_9">
      <g>
       <use xlink:href="#m734a870ef5" x="34.240625" y="204.429183" style="stroke: #000000; stroke-width: 0.8"/>
      </g>
     </g>
     <g id="text_10">
      <!-- 3 -->
      <g transform="translate(20.878125 208.228401)scale(0.1 -0.1)">
       <defs>
        <path id="DejaVuSans-33" d="M 2597 2516 
Q 3050 2419 3304 2112 
Q 3559 1806 3559 1356 
Q 3559 666 3084 287 
Q 2609 -91 1734 -91 
Q 1441 -91 1130 -33 
Q 819 25 488 141 
L 488 750 
Q 750 597 1062 519 
Q 1375 441 1716 441 
Q 2309 441 2620 675 
Q 2931 909 2931 1356 
Q 2931 1769 2642 2001 
Q 2353 2234 1838 2234 
L 1294 2234 
L 1294 2753 
L 1863 2753 
Q 2328 2753 2575 2939 
Q 2822 3125 2822 3475 
Q 2822 3834 2567 4026 
Q 2313 4219 1838 4219 
Q 1578 4219 1281 4162 
Q 984 4106 628 3988 
L 628 4550 
Q 988 4650 1302 4700 
Q 1616 4750 1894 4750 
Q 2613 4750 3031 4423 
Q 3450 4097 3450 3541 
Q 3450 3153 3228 2886 
Q 3006 2619 2597 2516 
z
" transform="scale(0.015625)"/>
       </defs>
       <use xlink:href="#DejaVuSans-33"/>
      </g>
     </g>
    </g>
    <g id="ytick_5">
     <g id="line2d_10">
      <g>
       <use xlink:href="#m734a870ef5" x="34.240625" y="156.412868" style="stroke: #000000; stroke-width: 0.8"/>
      </g>
     </g>
     <g id="text_11">
      <!-- 4 -->
      <g transform="translate(20.878125 160.212087)scale(0.1 -0.1)">
       <defs>
        <path id="DejaVuSans-34" d="M 2419 4116 
L 825 1625 
L 2419 1625 
L 2419 4116 
z
M 2253 4666 
L 3047 4666 
L 3047 1625 
L 3713 1625 
L 3713 1100 
L 3047 1100 
L 3047 0 
L 2419 0 
L 2419 1100 
L 313 1100 
L 313 1709 
L 2253 4666 
z
" transform="scale(0.015625)"/>
       </defs>
       <use xlink:href="#DejaVuSans-34"/>
      </g>
     </g>
    </g>
    <g id="ytick_6">
     <g id="line2d_11">
      <g>
       <use xlink:href="#m734a870ef5" x="34.240625" y="108.396554" style="stroke: #000000; stroke-width: 0.8"/>
      </g>
     </g>
     <g id="text_12">
      <!-- 5 -->
      <g transform="translate(20.878125 112.195773)scale(0.1 -0.1)">
       <use xlink:href="#DejaVuSans-35"/>
      </g>
     </g>
    </g>
    <g id="ytick_7">
     <g id="line2d_12">
      <g>
       <use xlink:href="#m734a870ef5" x="34.240625" y="60.38024" style="stroke: #000000; stroke-width: 0.8"/>
      </g>
     </g>
     <g id="text_13">
      <!-- 6 -->
      <g transform="translate(20.878125 64.179459)scale(0.1 -0.1)">
       <defs>
        <path id="DejaVuSans-36" d="M 2113 2584 
Q 1688 2584 1439 2293 
Q 1191 2003 1191 1497 
Q 1191 994 1439 701 
Q 1688 409 2113 409 
Q 2538 409 2786 701 
Q 3034 994 3034 1497 
Q 3034 2003 2786 2293 
Q 2538 2584 2113 2584 
z
M 3366 4563 
L 3366 3988 
Q 3128 4100 2886 4159 
Q 2644 4219 2406 4219 
Q 1781 4219 1451 3797 
Q 1122 3375 1075 2522 
Q 1259 2794 1537 2939 
Q 1816 3084 2150 3084 
Q 2853 3084 3261 2657 
Q 3669 2231 3669 1497 
Q 3669 778 3244 343 
Q 2819 -91 2113 -91 
Q 1303 -91 875 529 
Q 447 1150 447 2328 
Q 447 3434 972 4092 
Q 1497 4750 2381 4750 
Q 2619 4750 2861 4703 
Q 3103 4656 3366 4563 
z
" transform="scale(0.015625)"/>
       </defs>
       <use xlink:href="#DejaVuSans-36"/>
      </g>
     </g>
    </g>
    <g id="text_14">
     <!-- Density -->
     <g transform="translate(14.798438 204.406719)rotate(-90)scale(0.1 -0.1)">
      <defs>
       <path id="DejaVuSans-44" d="M 1259 4147 
L 1259 519 
L 2022 519 
Q 2988 519 3436 956 
Q 3884 1394 3884 2338 
Q 3884 3275 3436 3711 
Q 2988 4147 2022 4147 
L 1259 4147 
z
M 628 4666 
L 1925 4666 
Q 3281 4666 3915 4102 
Q 4550 3538 4550 2338 
Q 4550 1131 3912 565 
Q 3275 0 1925 0 
L 628 0 
L 628 4666 
z
" transform="scale(0.015625)"/>
       <path id="DejaVuSans-6e" d="M 3513 2113 
L 3513 0 
L 2938 0 
L 2938 2094 
Q 2938 2591 2744 2837 
Q 2550 3084 2163 3084 
Q 1697 3084 1428 2787 
Q 1159 2491 1159 1978 
L 1159 0 
L 581 0 
L 581 3500 
L 1159 3500 
L 1159 2956 
Q 1366 3272 1645 3428 
Q 1925 3584 2291 3584 
Q 2894 3584 3203 3211 
Q 3513 2838 3513 2113 
z
" transform="scale(0.015625)"/>
       <path id="DejaVuSans-69" d="M 603 3500 
L 1178 3500 
L 1178 0 
L 603 0 
L 603 3500 
z
M 603 4863 
L 1178 4863 
L 1178 4134 
L 603 4134 
L 603 4863 
z
" transform="scale(0.015625)"/>
       <path id="DejaVuSans-79" d="M 2059 -325 
Q 1816 -950 1584 -1140 
Q 1353 -1331 966 -1331 
L 506 -1331 
L 506 -850 
L 844 -850 
Q 1081 -850 1212 -737 
Q 1344 -625 1503 -206 
L 1606 56 
L 191 3500 
L 800 3500 
L 1894 763 
L 2988 3500 
L 3597 3500 
L 2059 -325 
z
" transform="scale(0.015625)"/>
      </defs>
      <use xlink:href="#DejaVuSans-44"/>
      <use xlink:href="#DejaVuSans-65" x="77.001953"/>
      <use xlink:href="#DejaVuSans-6e" x="138.525391"/>
      <use xlink:href="#DejaVuSans-73" x="201.904297"/>
      <use xlink:href="#DejaVuSans-69" x="254.003906"/>
      <use xlink:href="#DejaVuSans-74" x="281.787109"/>
      <use xlink:href="#DejaVuSans-79" x="320.996094"/>
     </g>
    </g>
   </g>
   <g id="patch_53">
    <path d="M 34.240625 348.478125 
L 34.240625 22.318125 
" style="fill: none; stroke: #000000; stroke-width: 0.8; stroke-linejoin: miter; stroke-linecap: square"/>
   </g>
   <g id="patch_54">
    <path d="M 34.240625 348.478125 
L 815.440625 348.478125 
" style="fill: none; stroke: #000000; stroke-width: 0.8; stroke-linejoin: miter; stroke-linecap: square"/>
   </g>
   <g id="text_15">
    <!-- Peak Spacing -->
    <g transform="translate(384.817813 16.318125)scale(0.12 -0.12)">
     <defs>
      <path id="DejaVuSans-50" d="M 1259 4147 
L 1259 2394 
L 2053 2394 
Q 2494 2394 2734 2622 
Q 2975 2850 2975 3272 
Q 2975 3691 2734 3919 
Q 2494 4147 2053 4147 
L 1259 4147 
z
M 628 4666 
L 2053 4666 
Q 2838 4666 3239 4311 
Q 3641 3956 3641 3272 
Q 3641 2581 3239 2228 
Q 2838 1875 2053 1875 
L 1259 1875 
L 1259 0 
L 628 0 
L 628 4666 
z
" transform="scale(0.015625)"/>
      <path id="DejaVuSans-61" d="M 2194 1759 
Q 1497 1759 1228 1600 
Q 959 1441 959 1056 
Q 959 750 1161 570 
Q 1363 391 1709 391 
Q 2188 391 2477 730 
Q 2766 1069 2766 1631 
L 2766 1759 
L 2194 1759 
z
M 3341 1997 
L 3341 0 
L 2766 0 
L 2766 531 
Q 2569 213 2275 61 
Q 1981 -91 1556 -91 
Q 1019 -91 701 211 
Q 384 513 384 1019 
Q 384 1609 779 1909 
Q 1175 2209 1959 2209 
L 2766 2209 
L 2766 2266 
Q 2766 2663 2505 2880 
Q 2244 3097 1772 3097 
Q 1472 3097 1187 3025 
Q 903 2953 641 2809 
L 641 3341 
Q 956 3463 1253 3523 
Q 1550 3584 1831 3584 
Q 2591 3584 2966 3190 
Q 3341 2797 3341 1997 
z
" transform="scale(0.015625)"/>
      <path id="DejaVuSans-6b" d="M 581 4863 
L 1159 4863 
L 1159 1991 
L 2875 3500 
L 3609 3500 
L 1753 1863 
L 3688 0 
L 2938 0 
L 1159 1709 
L 1159 0 
L 581 0 
L 581 4863 
z
" transform="scale(0.015625)"/>
      <path id="DejaVuSans-53" d="M 3425 4513 
L 3425 3897 
Q 3066 4069 2747 4153 
Q 2428 4238 2131 4238 
Q 1616 4238 1336 4038 
Q 1056 3838 1056 3469 
Q 1056 3159 1242 3001 
Q 1428 2844 1947 2747 
L 2328 2669 
Q 3034 2534 3370 2195 
Q 3706 1856 3706 1288 
Q 3706 609 3251 259 
Q 2797 -91 1919 -91 
Q 1588 -91 1214 -16 
Q 841 59 441 206 
L 441 856 
Q 825 641 1194 531 
Q 1563 422 1919 422 
Q 2459 422 2753 634 
Q 3047 847 3047 1241 
Q 3047 1584 2836 1778 
Q 2625 1972 2144 2069 
L 1759 2144 
Q 1053 2284 737 2584 
Q 422 2884 422 3419 
Q 422 4038 858 4394 
Q 1294 4750 2059 4750 
Q 2388 4750 2728 4690 
Q 3069 4631 3425 4513 
z
" transform="scale(0.015625)"/>
      <path id="DejaVuSans-70" d="M 1159 525 
L 1159 -1331 
L 581 -1331 
L 581 3500 
L 1159 3500 
L 1159 2969 
Q 1341 3281 1617 3432 
Q 1894 3584 2278 3584 
Q 2916 3584 3314 3078 
Q 3713 2572 3713 1747 
Q 3713 922 3314 415 
Q 2916 -91 2278 -91 
Q 1894 -91 1617 61 
Q 1341 213 1159 525 
z
M 3116 1747 
Q 3116 2381 2855 2742 
Q 2594 3103 2138 3103 
Q 1681 3103 1420 2742 
Q 1159 2381 1159 1747 
Q 1159 1113 1420 752 
Q 1681 391 2138 391 
Q 2594 391 2855 752 
Q 3116 1113 3116 1747 
z
" transform="scale(0.015625)"/>
      <path id="DejaVuSans-63" d="M 3122 3366 
L 3122 2828 
Q 2878 2963 2633 3030 
Q 2388 3097 2138 3097 
Q 1578 3097 1268 2742 
Q 959 2388 959 1747 
Q 959 1106 1268 751 
Q 1578 397 2138 397 
Q 2388 397 2633 464 
Q 2878 531 3122 666 
L 3122 134 
Q 2881 22 2623 -34 
Q 2366 -91 2075 -91 
Q 1284 -91 818 406 
Q 353 903 353 1747 
Q 353 2603 823 3093 
Q 1294 3584 2113 3584 
Q 2378 3584 2631 3529 
Q 2884 3475 3122 3366 
z
" transform="scale(0.015625)"/>
      <path id="DejaVuSans-67" d="M 2906 1791 
Q 2906 2416 2648 2759 
Q 2391 3103 1925 3103 
Q 1463 3103 1205 2759 
Q 947 2416 947 1791 
Q 947 1169 1205 825 
Q 1463 481 1925 481 
Q 2391 481 2648 825 
Q 2906 1169 2906 1791 
z
M 3481 434 
Q 3481 -459 3084 -895 
Q 2688 -1331 1869 -1331 
Q 1566 -1331 1297 -1286 
Q 1028 -1241 775 -1147 
L 775 -588 
Q 1028 -725 1275 -790 
Q 1522 -856 1778 -856 
Q 2344 -856 2625 -561 
Q 2906 -266 2906 331 
L 2906 616 
Q 2728 306 2450 153 
Q 2172 0 1784 0 
Q 1141 0 747 490 
Q 353 981 353 1791 
Q 353 2603 747 3093 
Q 1141 3584 1784 3584 
Q 2172 3584 2450 3431 
Q 2728 3278 2906 2969 
L 2906 3500 
L 3481 3500 
L 3481 434 
z
" transform="scale(0.015625)"/>
     </defs>
     <use xlink:href="#DejaVuSans-50"/>
     <use xlink:href="#DejaVuSans-65" x="56.677734"/>
     <use xlink:href="#DejaVuSans-61" x="118.201172"/>
     <use xlink:href="#DejaVuSans-6b" x="179.480469"/>
     <use xlink:href="#DejaVuSans-20" x="237.390625"/>
     <use xlink:href="#DejaVuSans-53" x="269.177734"/>
     <use xlink:href="#DejaVuSans-70" x="332.654297"/>
     <use xlink:href="#DejaVuSans-61" x="396.130859"/>
     <use xlink:href="#DejaVuSans-63" x="457.410156"/>
     <use xlink:href="#DejaVuSans-69" x="512.390625"/>
     <use xlink:href="#DejaVuSans-6e" x="540.173828"/>
     <use xlink:href="#DejaVuSans-67" x="603.552734"/>
    </g>
   </g>
   <g id="legend_1">
    <g id="text_16">
     <!-- Environment -->
     <g transform="translate(742.59375 38.916562)scale(0.1 -0.1)">
      <defs>
       <path id="DejaVuSans-45" d="M 628 4666 
L 3578 4666 
L 3578 4134 
L 1259 4134 
L 1259 2753 
L 3481 2753 
L 3481 2222 
L 1259 2222 
L 1259 531 
L 3634 531 
L 3634 0 
L 628 0 
L 628 4666 
z
" transform="scale(0.015625)"/>
       <path id="DejaVuSans-76" d="M 191 3500 
L 800 3500 
L 1894 563 
L 2988 3500 
L 3597 3500 
L 2284 0 
L 1503 0 
L 191 3500 
z
" transform="scale(0.015625)"/>
       <path id="DejaVuSans-6f" d="M 1959 3097 
Q 1497 3097 1228 2736 
Q 959 2375 959 1747 
Q 959 1119 1226 758 
Q 1494 397 1959 397 
Q 2419 397 2687 759 
Q 2956 1122 2956 1747 
Q 2956 2369 2687 2733 
Q 2419 3097 1959 3097 
z
M 1959 3584 
Q 2709 3584 3137 3096 
Q 3566 2609 3566 1747 
Q 3566 888 3137 398 
Q 2709 -91 1959 -91 
Q 1206 -91 779 398 
Q 353 888 353 1747 
Q 353 2609 779 3096 
Q 1206 3584 1959 3584 
z
" transform="scale(0.015625)"/>
      </defs>
      <use xlink:href="#DejaVuSans-45"/>
      <use xlink:href="#DejaVuSans-6e" x="63.183594"/>
      <use xlink:href="#DejaVuSans-76" x="126.5625"/>
      <use xlink:href="#DejaVuSans-69" x="185.742188"/>
      <use xlink:href="#DejaVuSans-72" x="213.525391"/>
      <use xlink:href="#DejaVuSans-6f" x="252.388672"/>
      <use xlink:href="#DejaVuSans-6e" x="313.570312"/>
      <use xlink:href="#DejaVuSans-6d" x="376.949219"/>
      <use xlink:href="#DejaVuSans-65" x="474.361328"/>
      <use xlink:href="#DejaVuSans-6e" x="535.884766"/>
      <use xlink:href="#DejaVuSans-74" x="599.263672"/>
     </g>
    </g>
    <g id="patch_55">
     <path d="M 757.335938 53.594687 
L 777.335938 53.594687 
L 777.335938 46.594687 
L 757.335938 46.594687 
z
" style="fill: #f98e09; fill-opacity: 0.35; stroke: #f98e09; stroke-linejoin: miter"/>
    </g>
    <g id="text_17">
     <!-- 0 -->
     <g transform="translate(785.335938 53.594687)scale(0.1 -0.1)">
      <use xlink:href="#DejaVuSans-30"/>
     </g>
    </g>
    <g id="patch_56">
     <path d="M 757.335938 68.272812 
L 777.335938 68.272812 
L 777.335938 61.272812 
L 757.335938 61.272812 
z
" style="fill: #bc3754; fill-opacity: 0.35; stroke: #bc3754; stroke-linejoin: miter"/>
    </g>
    <g id="text_18">
     <!-- 1 -->
     <g transform="translate(785.335938 68.272812)scale(0.1 -0.1)">
      <use xlink:href="#DejaVuSans-31"/>
     </g>
    </g>
    <g id="patch_57">
     <path d="M 757.335938 82.950937 
L 777.335938 82.950937 
L 777.335938 75.950937 
L 757.335938 75.950937 
z
" style="fill: #57106e; fill-opacity: 0.35; stroke: #57106e; stroke-linejoin: miter"/>
    </g>
    <g id="text_19">
     <!-- 2 -->
     <g transform="translate(785.335938 82.950937)scale(0.1 -0.1)">
      <use xlink:href="#DejaVuSans-32"/>
     </g>
    </g>
   </g>
  </g>
 </g>
 <defs>
  <clipPath id="p978090a1eb">
   <rect x="34.240625" y="22.318125" width="781.2" height="326.16"/>
  </clipPath>
 </defs>
</svg>
